<svg id="Layer_1" data-name="Layer 1" stroke="#7C2929" xmlns="http://www.w3.org/2000/svg" viewBox="0 0 1879 1438"><title>GT_ABSTRACT_FORM</title><path d="M562.51,1385.19a112.48,112.48,0,0,1-43.74-9.23c-32.94-13.91-59.71-41.38-71.6-73.46-20.17-54.38-6.26-123,36.3-179.06,7.63-10,16.1-19.75,24.28-29.12,14.59-16.72,29.68-34,40.4-53.75,16-29.54,21.58-71.31-2.15-98.06-26.42-29.78-69.67-24.61-111.5-19.61-12.67,1.52-25.77,3.09-38.06,3.61-2.53.1-5.07.16-7.61.16-59.69,0-123-29.38-174.78-81.43-48.63-48.85-82.49-109.89-115.24-168.91-15-27.08-32-57.76-36.9-90.67-5.37-36.27,6.68-71.22,30.7-89.06,20-14.83,45.64-17.45,70.47-20,23.53-2.41,47.87-4.89,67.33-17.76,36-23.84,42.49-72.79,48.19-116,.36-2.77.73-5.51,1.09-8.22,2.5-18.52,8.28-45.4,21.6-68.27s30.67-35.77,51.76-38.64c57.16-7.76,80.12,45.84,100.37,93.13,8.68,20.27,16.88,39.41,27.14,52.89C498.91,397.89,520.25,410.41,544,411c31.22.72,65.64-19.26,96.87-56.38,45.24-53.8,99.95-115.73,162.67-167.24,63.27-52,129.8-89.35,203.38-114.31l.23.67-.23-.67c41.78-14.18,98.55-23.87,131.73,10.46,30.24,31.29,23.44,83.89,3.27,122.15-8.65,16.43-19.47,32-29.94,47-13.92,20-28.32,40.68-37.63,63.53-21.91,53.76-13.31,118.3,21.9,164.45s95.21,71.47,152.84,64.52c52.3-6.3,97.74-36.57,141.69-65.83,13-8.66,26.46-17.62,39.85-25.79,52.53-32.06,133.45-68.2,220.63-58.33a230.9,230.9,0,0,1,108,41.74c33.15,24.06,56.64,55.42,67.94,90.69,13.56,42.35,9,90.61-12.88,135.89a244.74,244.74,0,0,1-96,103.89c-38,22.16-82.9,36.37-133.57,42.25-42.5,4.94-90.47,4.14-142.58-2.37-40.64-5.08-81.56-12.94-121.13-20.54-51.8-9.95-105.37-20.23-158.79-24.36-64.46-5-113.4,1.2-154,19.48-51.77,23.3-88,69.38-92.18,117.39-5,56.76,30.74,105.35,65.3,152.33,32.17,43.74,65.44,89,67.68,141.74,1,24.36-5.2,49.21-18,71.86a146.75,146.75,0,0,1-51.92,53.58c-20.83,12.5-45.42,20.06-71.1,21.86a177.38,177.38,0,0,1-74.06-10.7c-10.2-3.82-20.45-8.64-30.36-13.31-25.47-12-51.81-24.39-79.4-20.52-28.12,4-49.06,22.87-71.23,42.9-16.12,14.56-32.8,29.62-52.46,38.32A93.57,93.57,0,0,1,562.51,1385.19ZM482.14,917.62c25.18,0,48.26,5.15,64.93,23.94,11,12.36,16.61,29,16.33,48.2-.25,17-5.22,35.32-14,51.49-10.79,19.88-25.93,37.23-40.57,54-8.17,9.36-16.62,19-24.22,29-42.27,55.68-56.1,123.77-36.1,177.7,11.76,31.72,38.23,58.87,70.82,72.64,27.58,11.65,56.18,12.14,80.53,1.38,19.46-8.6,36-23.58,52.08-38.07,21.35-19.3,43.44-39.25,72-43.25,28-3.94,54.55,8.56,80.21,20.64,9.88,4.65,20.1,9.46,30.25,13.26a176.18,176.18,0,0,0,73.46,10.62c25.46-1.79,49.83-9.28,70.47-21.67a145.31,145.31,0,0,0,51.4-53.06c12.69-22.41,18.86-47,17.84-71.09-2.22-52.34-35.36-97.39-67.4-141-34.72-47.2-70.62-96-65.57-153.31,4.27-48.52,40.78-95.06,93-118.56,40.85-18.38,90-24.61,154.72-19.61,53.5,4.14,107.11,14.43,159,24.39,39.55,7.59,80.45,15.45,121,20.52,52,6.49,99.85,7.29,142.24,2.37,50.47-5.85,95.22-20,133-42.07A243.28,243.28,0,0,0,1813,662.92c21.7-44.95,26.25-92.83,12.8-134.84-11.21-35-34.52-66.08-67.42-90a229.41,229.41,0,0,0-107.28-41.48c-86.78-9.81-167.38,26.19-219.72,58.13-13.37,8.15-26.81,17.1-39.81,25.76-44.08,29.36-89.67,59.72-142.31,66.06a160.17,160.17,0,0,1-19.19,1.15c-51.92,0-103.34-24.79-135-66.22C1059.59,435,1050.92,369.88,1073,315.67c9.38-23,23.82-43.75,37.79-63.82,10.44-15,21.23-30.5,29.85-46.85,19.92-37.8,26.71-89.71-3-120.49-32.65-33.79-88.85-24.14-130.24-10.1C934,99.31,867.57,136.62,804.44,188.47,741.81,239.91,687.15,301.78,642,355.53c-31.51,37.46-66.3,57.65-98,56.89-24.2-.6-45.92-13.3-64.54-37.78-10.37-13.62-18.6-32.85-27.31-53.19-10.3-24-20.94-48.9-36.14-67-17.17-20.43-37.69-28.7-62.72-25.3-20.63,2.8-37.7,15.57-50.73,37.94-13.2,22.67-18.93,49.35-21.41,67.74q-.56,4.06-1.09,8.21c-5.74,43.5-12.25,92.79-48.82,117-19.75,13.07-44.27,15.57-68,18-24.63,2.51-50.1,5.12-69.76,19.71-23.6,17.52-35.42,52-30.14,87.7,4.83,32.66,21.79,63.22,36.74,90.18,32.7,59,66.52,119.9,115,168.6,53.75,54,119.84,83.47,181.32,80.85,12.23-.52,25.31-2.08,37.95-3.6C450.39,919.56,466.66,917.62,482.14,917.62Z"/><path d="M559.66,1370.18c-20.71,0-42.12-6.51-61.79-19-24.46-15.51-43.73-39.14-52.87-64.83-9.75-27.37-11.08-58.74-3.86-90.7,6.62-29.27,20.07-58.36,38.91-84.12,7.12-9.77,15-19.17,22.57-28.27,13.71-16.43,27.88-33.41,37.75-52.66,14.7-28.58,19.13-68.92-4.1-94.6-25.92-28.69-67.84-24.22-108.38-19.91-12.41,1.32-25.25,2.69-37.28,3a190.19,190.19,0,0,1-48.71-5.06c-44.81-10.5-90-37.58-127.36-76.25-45.67-47.31-77.22-105.12-108.15-165.16C93,646.58,77.72,617,73.94,585.35a105.4,105.4,0,0,1,4.88-46.78c5.54-15.83,15-28.81,27.28-37.55,19.24-13.66,43.7-16.41,67.36-19.06l2.74-.31c25.7-2.85,46.78-6,64.75-18.29,35-23.73,41.52-71.86,47.31-114.32.36-2.63.71-5.24,1.07-7.83,2.55-18.28,8.28-44.8,21.1-67.31s29.56-35.45,49.8-38.52c54.66-8.31,76.82,42.15,96.37,86.67,8.37,19,16.27,37,26.11,49.62,17.53,22.43,37.85,34,60.39,34.4,30.06.53,63.33-19,93.59-55,7.52-8.95,14.48-17.14,21.28-25,55.49-64.33,101.22-109.4,148.27-146.12C864,134.85,924.46,102.38,991.15,80.66c40.48-13.18,95.54-21.78,127.95,12.15,13.56,14.17,20.58,33.92,20.32,57.11-.23,20.06-5.92,42.13-16,62.15-6.7,13.26-14.67,25.72-22.29,37.2q-2.86,4.33-5.78,8.66c-13.18,19.68-26.81,40-35.54,62.45-20.5,52.69-11.55,115.6,22.79,160.27a159.47,159.47,0,0,0,38,35.37c32.84,21.91,73.44,31.86,111.38,27.3,51.38-6.17,95.81-35.57,138.78-64l.27-.18c12.57-8.32,25.55-16.91,38.48-24.77,51.48-31.31,130.63-66.7,215.35-57.49a224.58,224.58,0,0,1,105.54,40.42c32.46,23.42,55.44,54,66.46,88.36a158.16,158.16,0,0,1,7.46,46.81c.34,35.86-10.86,72.79-32.38,106.82-20.53,32.45-49.88,60.62-82.64,79.32-36.06,20.57-78.35,34-129.3,41.17-44.13,6.18-91.78,7.26-141.63,3.18-24.57-2-50.72-5.24-79.93-9.88-15.09-2.39-30.3-5-45-7.59-43.27-7.53-88-15.31-133.82-17-59.54-2.36-108.21,5.45-148.79,23.86-24.22,11-45.76,26.76-62.28,45.63-17.68,20.19-28.57,43-31.47,65.84-6.17,48.49,19.75,88.35,49.19,128.3,3,4.12,6.12,8.23,9.2,12.35,17.68,23.67,36,48.14,47.49,74.17,8.36,18.84,12.47,36.82,12.57,55a123.72,123.72,0,0,1-10,48.2,161.89,161.89,0,0,1-61.75,73.06,164,164,0,0,1-77.52,24.44,169.46,169.46,0,0,1-62-7.92c-9.75-3.18-19.56-7.32-29-11.32-24.51-10.34-49.85-21-76.79-16.41s-47.46,22.59-69.25,41.63c-16.6,14.52-33.77,29.52-53.9,37.87a91.13,91.13,0,0,1-18.22,5.4A95,95,0,0,1,559.66,1370.18ZM472,911.51c25.26,0,48.52,4.93,65.35,23.55,23.69,26.19,19.23,67.19,4.31,96.21-9.94,19.39-24.17,36.44-37.93,52.92-7.57,9.08-15.41,18.47-22.5,28.2-18.73,25.61-32.1,54.51-38.67,83.59-7.17,31.7-5.85,62.79,3.8,89.91,9,25.39,28.1,48.76,52.3,64.1,24.92,15.81,52.68,21.92,78.14,17.2a89.08,89.08,0,0,0,17.93-5.31c19.91-8.26,37-23.19,53.51-37.62,21-18.34,42.68-37.3,69.95-42s52.89,6.08,77.59,16.5c9.46,4,19.24,8.12,28.93,11.29a168.15,168.15,0,0,0,61.51,7.84A162.49,162.49,0,0,0,963,1293.7a160.39,160.39,0,0,0,61.19-72.4,122.4,122.4,0,0,0,9.86-47.64c-.1-18-4.17-35.77-12.44-54.42-11.46-25.88-29.7-50.29-47.34-73.89-3.08-4.12-6.16-8.24-9.2-12.37-29.62-40.18-55.7-80.31-49.46-129.32,2.94-23.17,13.94-46.2,31.81-66.6,16.66-19,38.37-34.93,62.77-46,40.79-18.49,89.67-26.35,149.43-24,45.9,1.67,90.7,9.47,134,17,14.7,2.56,29.9,5.2,45,7.58,29.17,4.64,55.28,7.87,79.82,9.88,49.74,4.06,97.29,3,141.31-3.18,50.76-7.1,92.89-20.51,128.79-41,32.56-18.58,61.73-46.58,82.14-78.85,21.38-33.79,32.5-70.45,32.16-106a156.12,156.12,0,0,0-7.4-46.4c-10.92-34.09-33.72-64.39-65.92-87.63a223.13,223.13,0,0,0-104.87-40.16c-84.31-9.18-163.15,26.09-214.45,57.29-12.9,7.85-25.88,16.43-38.43,24.74l-.28.18c-43.1,28.53-87.67,58-139.39,64.23-38.28,4.6-79.22-5.44-112.34-27.53a160.76,160.76,0,0,1-38.37-35.69c-34.64-45.06-43.67-108.51-23-161.66,8.79-22.56,22.46-43,35.69-62.73q2.89-4.32,5.77-8.65c7.59-11.45,15.54-23.86,22.2-37.06,10-19.82,15.67-41.67,15.89-61.52.26-22.8-6.63-42.2-19.92-56.11C1086.17,60.41,1031.69,69,991.6,82c-66.54,21.67-126.88,54.06-184.48,99-47,36.66-92.64,81.67-148.07,145.92-6.79,7.88-13.75,16.06-21.27,25-30.13,35.86-63.28,55.54-93.49,55.54h-1.22c-23-.41-43.68-12.16-61.48-34.94-10-12.74-17.89-30.81-26.3-49.94-9.93-22.61-20.2-46-34.8-62.88-16.48-19.07-36.12-26.57-60-23l-.11-.7.11.7c-19.79,3-36.2,15.73-48.77,37.81-12.71,22.32-18.4,48.65-20.93,66.81q-.54,3.88-1.08,7.82c-5.82,42.76-12.43,91.23-47.92,115.31-18.23,12.47-39.49,15.66-65.39,18.53l-2.74.31c-23.48,2.63-47.76,5.36-66.69,18.8-18.41,13.07-36.37,41.74-31.57,83C79.11,616.59,94.28,646,107.66,672,138.54,732,170,789.66,215.57,836.84c37.13,38.47,82.11,65.41,126.66,75.85a188.69,188.69,0,0,0,48.34,5c12-.34,24.78-1.7,37.16-3C442.57,913.11,457.6,911.51,472,911.51Z"/><path d="M556.85,1355.19c-21.12,0-42.94-6.87-62.78-20-23.86-15.76-42.54-39.45-51.24-65-9.22-27-10.29-56.8-3.18-88.45,6.37-28.35,19.16-56.74,37-82.12,6.6-9.46,13.83-18.55,20.81-27.34,13.44-16.9,26.13-32.87,35.15-51.65,13.37-27.62,16.68-66.52-6.06-91.14-25.41-27.59-66-23.83-105.25-20.2-12.16,1.12-24.72,2.28-36.49,2.45a185.53,185.53,0,0,1-47.24-5.57c-43.46-10.8-87-37.72-122.52-75.79C171.15,783.44,140.52,725.08,114,669c-11.92-25.17-25.43-53.69-28-84-2.2-26,5.48-60.56,33.62-79.6,18.48-12.51,41.73-15.34,64.21-18.08l4.68-.58c22.94-2.76,45-6.28,63-18.9,33.9-23.8,40.58-71.18,46.47-113,.34-2.39.67-4.76,1-7.12,2.6-18,8.28-44.22,20.61-66.37S348,246.29,367.41,243l.12.7-.12-.7c52.15-8.82,73.52,38.47,92.37,80.2,8.05,17.82,15.66,34.66,25.09,46.37,16.71,20.74,36,31.37,57.33,31.59,29,.27,61-18.78,90.32-53.68,7.21-8.6,13.93-16.5,20.54-24.16,53.57-62.09,97.81-105.54,143.46-140.88,56-43.33,114.48-74.13,178.87-94.18,71-22.11,106.7-4.69,124.17,13.82,13.12,13.89,20,33.16,20,55.74,0,19.49-5.25,41-14.72,60.63-6.29,13-13.77,25.22-20.91,36.46q-2.62,4.14-5.29,8.27c-12.44,19.36-25.3,39.39-33.44,61.37-19.09,51.63-9.79,112.9,23.68,156.1A155.83,155.83,0,0,0,1106.1,515c32,21.23,71.67,30.86,108.76,26.43,50.46-6,93.76-34.49,135.63-62l.91-.6c12.08-7.93,24.56-16.13,37-23.66,72.33-43.84,145-63.43,210.07-56.65a218.5,218.5,0,0,1,103.13,39.09c31.76,22.79,54.22,52.54,65,86a152.16,152.16,0,0,1,7.22,45.68c.22,35-10.91,70.9-32.18,103.91a234.34,234.34,0,0,1-81.28,76.53c-34.77,19.37-75.6,32.24-128.5,40.49a728.83,728.83,0,0,1-137.2,8.33c-24.35-.82-49.45-2.86-74.58-6-15.94-2-31.81-4.41-47.16-6.75-37.07-5.65-75.38-11.51-115.84-11.21-55.13.39-103.44,9.89-143.57,28.23-24.07,11-45.62,26.21-62.33,44-17.94,19.1-29.36,40.39-33,61.57-7.8,45.22,16.68,82.59,42.42,117q4.43,5.89,8.94,11.8c16,21,32.61,42.79,42.61,66.19,7.32,17.07,10.58,33.62,10,50.59-.58,14.75-4.48,30-11.61,45.34A179,179,0,0,1,948.56,1271a168.08,168.08,0,0,1-74.74,26.6,159.33,159.33,0,0,1-59.2-4.71c-9.32-2.55-18.72-6-27.82-9.37-23.52-8.67-47.84-17.64-74.1-12.27-25.59,5.22-46.69,23-67.09,40.3-17.15,14.49-34.88,29.48-55.54,37.48A90.55,90.55,0,0,1,572,1354,95.18,95.18,0,0,1,556.85,1355.19ZM461.61,905.38c25.39,0,48.94,4.69,66,23.18,23.2,25.12,19.88,64.67,6.3,92.73-9.09,18.93-22.42,35.7-35.32,51.92-7,8.77-14.18,17.84-20.76,27.27-17.72,25.23-30.43,53.45-36.75,81.61-7.05,31.39-6,60.89,3.13,87.68,8.6,25.25,27.07,48.67,50.68,64.25,24.32,16.07,51.63,22.66,76.88,18.55a88.58,88.58,0,0,0,17.82-4.84c20.43-7.92,38.07-22.83,55.12-37.24,20.54-17.37,41.78-35.32,67.73-40.61,26.66-5.45,51.18,3.59,74.89,12.33,9.06,3.34,18.43,6.8,27.7,9.33a158.19,158.19,0,0,0,58.67,4.67,166.6,166.6,0,0,0,74.1-26.38,177.53,177.53,0,0,0,61.38-71.13c7-15.17,10.9-30.24,11.48-44.8.6-16.75-2.62-33.09-9.86-50-9.93-23.23-26.45-44.92-42.43-65.89q-4.5-5.89-8.94-11.81c-12.87-17.18-25.94-35.81-34.38-55.55-9.16-21.41-11.88-41.86-8.31-62.52,3.69-21.46,15.23-43,33.37-62.31,16.84-17.91,38.54-33.24,62.78-44.31,40.31-18.43,88.81-28,144.15-28.36,40.57-.3,78.94,5.56,116.07,11.23,15.34,2.34,31.2,4.76,47.12,6.74,25.09,3.18,50.14,5.21,74.45,6a726,726,0,0,0,136.93-8.31c52.73-8.23,93.41-21,128-40.33a232.76,232.76,0,0,0,80.76-76c21.13-32.78,32.18-68.44,32-103.13a151,151,0,0,0-7.15-45.26c-10.65-33.2-32.93-62.7-64.44-85.31A217,217,0,0,0,1598.3,400c-64.79-6.74-137.12,12.78-209.18,56.45-12.39,7.52-24.87,15.71-36.93,23.64l-.91.6c-42,27.61-85.45,56.17-136.25,62.24-37.41,4.48-77.41-5.24-109.72-26.66a157.09,157.09,0,0,1-37.55-34.7c-33.77-43.58-43.15-105.39-23.9-157.47,8.21-22.12,21.11-42.22,33.58-61.64q2.65-4.14,5.3-8.27c7.11-11.2,14.56-23.34,20.82-36.31,9.38-19.42,14.56-40.73,14.58-60,0-22.21-6.75-41.14-19.62-54.76-17.19-18.21-52.43-35.32-122.7-13.44-64.22,20-122.59,50.73-178.43,94-45.57,35.28-89.75,78.66-143.25,140.68-6.6,7.65-13.32,15.55-20.53,24.15-29.34,35-61.54,54.19-90.75,54.19h-.67c-21.79-.22-41.45-11-58.44-32.13-9.54-11.84-17.18-28.76-25.27-46.67C448.91,302.61,439,280.71,425,265c-15.8-17.72-34.56-24.46-57.36-20.6-18.94,3.2-34.69,15.88-46.82,37.68C308.61,304.06,303,330,300.38,348c-.33,2.36-.67,4.73-1,7.12-5.94,42.09-12.66,89.8-47.07,114-18.25,12.81-40.53,16.37-63.66,19.15l-4.68.58c-23.34,2.84-45.38,5.53-63.58,17.84-27.63,18.7-35.16,52.71-33,78.3,2.54,30,16,58.43,27.86,83.49,26.51,56,57.07,114.21,100.81,161.05,35.37,37.87,78.63,64.64,121.82,75.37a184.45,184.45,0,0,0,46.88,5.53c11.71-.16,24.25-1.32,36.37-2.45C434.69,906.65,448.4,905.38,461.61,905.38Z"/><path d="M554,1340.25c-21.55,0-43.77-7.26-63.78-21-23.61-16.24-41.23-39.37-49.6-65.14-16.12-49.57-4-111.74,32.55-166.33,6-9,12.48-17.59,18.76-25.93,12.63-16.79,24.55-32.65,32.84-51.12,11.1-24.76,15.67-62.58-8-87.69-24.9-26.48-64.16-23.42-102.12-20.48-11.9.93-24.18,1.92-35.72,1.87a182.17,182.17,0,0,1-45.77-6.08c-42.09-11.1-83.88-37.85-117.67-75.32-44.37-49.2-73.53-110.11-94-157.67C109.42,637.16,99.29,611.63,98,584.71c-1.17-24.55,7.43-57.1,35.07-74.87,17.88-11.49,39.15-14.24,61.66-17.16l6-.78c22.13-2.94,43.47-6.65,61.26-19.53,32.86-23.78,39.65-70.39,45.63-111.52.32-2.18.64-4.36,1-6.52,4.19-28.24,19-94.86,66-103.7,49.64-9.33,70.21,34.8,88.37,73.74C470.7,341,478,356.66,487,367.47c15.89,19.08,34.16,28.77,54.3,28.8h.09c27.78,0,58.65-18.58,86.93-52.33,6.95-8.29,13.42-15.92,19.8-23.31C699.78,260.79,742.54,219,786.81,185,841,143.42,897.56,114.26,959.63,95.87c23.74-7,45.39-10,64.35-8.71,23.67,1.56,42.52,9.71,56,24.22,28.9,31,21.46,80.48,6.3,113.48a352.46,352.46,0,0,1-19.53,35.7q-2.4,3.93-4.81,7.87c-11.69,19.05-23.78,38.75-31.34,60.31-17.67,50.56-8,110.19,24.57,151.92a152.32,152.32,0,0,0,36.41,33.41c31.68,20.86,69.37,29.93,106.14,25.55,49.54-5.9,93.6-34.66,132.48-60l1.42-.92c11.63-7.59,23.65-15.43,35.6-22.65,33.16-20,66.34-35,98.64-44.53,36.7-10.83,72.41-14.63,106.15-11.28A212.29,212.29,0,0,1,1672.76,438c31.06,22.15,53,51.09,63.48,83.7a146.84,146.84,0,0,1,7,44.56c.09,34.09-11,69-32,101a227.48,227.48,0,0,1-79.9,73.74c-42.48,23.09-90.55,33.41-127.69,39.82-46.09,8-92,12.67-132.78,13.48a651.18,651.18,0,0,1-69.23-2.21c-15.82-1.33-31.34-3.31-46.35-5.23-33.33-4.25-64.81-8.26-100.83-6.13-50.74,3-98.57,14.29-138.34,32.61-51.27,23.61-88.41,61.8-96.92,99.66-9.46,41.95,12.42,75.19,35.64,105.65,2.83,3.7,5.76,7.45,8.59,11.07,14.41,18.47,29.31,37.57,37.82,58.39a96.63,96.63,0,0,1,7.37,46.19c-1.19,13.49-5.65,27.78-13.26,42.47-14.27,27.37-36.88,53-62,70.41a174.28,174.28,0,0,1-71.95,28.77,153.33,153.33,0,0,1-56.37-1.51c-8.92-1.93-17.94-4.73-26.66-7.44-22.51-7-45.79-14.22-71.35-8.11-24.25,5.77-44.82,22.6-64.72,38.87-17.75,14.53-36.11,29.55-57.37,37.2a89.7,89.7,0,0,1-18,4.44A93.59,93.59,0,0,1,554,1340.25Zm-103.1-441c25.64,0,49.58,4.41,66.9,22.82,10.44,11.07,16.43,26,17.33,43.06a102.19,102.19,0,0,1-9.06,46.19c-8.35,18.62-20.32,34.54-33,51.4-6.26,8.32-12.74,16.93-18.72,25.87C438.14,1142.79,426,1204.5,442,1253.66c8.28,25.47,25.7,48.34,49.05,64.4,23.73,16.31,50.59,23.38,75.64,19.89a87.5,87.5,0,0,0,17.69-4.37c21-7.57,39.3-22.5,57-36.95,20-16.38,40.72-33.31,65.29-39.16,25.94-6.2,49.41,1.09,72.11,8.14,8.69,2.7,17.68,5.49,26.54,7.4a152,152,0,0,0,55.84,1.5A172.85,172.85,0,0,0,932.5,1246c25-17.25,47.4-42.72,61.57-69.89,7.52-14.52,11.92-28.63,13.09-41.93a95.25,95.25,0,0,0-7.26-45.53c-8.44-20.64-23.28-39.66-37.63-58-2.83-3.63-5.76-7.38-8.59-11.08-23.43-30.73-45.5-64.29-35.91-106.84,8.61-38.28,46.05-76.84,97.72-100.64,39.93-18.39,87.94-29.71,138.86-32.73,36.15-2.15,69.17,2.06,101.09,6.13,15,1.92,30.5,3.89,46.29,5.22a648.33,648.33,0,0,0,69.08,2.21c40.7-.81,86.54-5.46,132.57-13.46,37-6.39,84.95-16.67,127.25-39.67A226,226,0,0,0,1710,666.44c20.87-31.75,31.85-66.4,31.76-100.21a145.59,145.59,0,0,0-6.9-44.12c-10.37-32.32-32.14-61-63-83a210.76,210.76,0,0,0-100-37.51c-33.54-3.33-69.07.45-105.6,11.23-32.18,9.49-65.25,24.43-98.3,44.39-11.93,7.2-23.94,15-35.56,22.62l-1.41.92c-39,25.46-83.23,54.32-133.1,60.26-37.1,4.43-75.13-4.73-107.1-25.78a153.75,153.75,0,0,1-36.75-33.72c-32.88-42.1-42.62-102.26-24.79-153.27,7.62-21.7,19.74-41.47,31.47-60.59q2.41-3.93,4.81-7.87A349.7,349.7,0,0,0,1085,224.26c15-32.59,22.37-81.46-6-111.91-16.78-18-51-35.23-118.94-15.11-61.91,18.34-118.29,47.42-172.36,88.9C743.49,220,700.79,261.8,649.23,321.56c-6.38,7.39-12.85,15-19.79,23.29-28.56,34.09-59.82,52.85-88,52.85h-.1c-20.58,0-39.22-9.89-55.39-29.31-9.13-11-16.48-26.72-24.26-43.42-9.21-19.75-18.73-40.18-32.13-54.67-15.12-16.37-33-22.34-54.67-18.26l-.14-.7.14.7c-46.05,8.67-60.69,74.57-64.84,102.5q-.48,3.24-.95,6.52c-6,41.41-12.86,88.34-46.21,112.47-18.06,13.08-39.59,16.82-61.91,19.79l-6,.78c-22.35,2.89-43.45,5.62-61.06,16.94-27.13,17.44-35.57,49.45-34.42,73.6,1.27,26.69,11.35,52.08,23.42,80.14,20.4,47.47,49.49,108.24,93.72,157.28,33.61,37.26,75.15,63.86,117,74.9a181.07,181.07,0,0,0,45.4,6h.23c11.4,0,23.59-1,35.38-1.86C426.73,900.18,439,899.23,450.94,899.23Z"/><path d="M551.37,1325.35c-48.23,0-97.38-37.23-112.88-87.39-7.9-25.53-8.49-53.76-1.78-83.91,5.87-26.34,17.3-53.37,33.07-78.16,5.42-8.52,11.22-16.71,16.83-24.62,11.79-16.64,22.94-32.36,30.42-50.5,9.85-23.88,13.16-60.27-10-84.23-24.38-25.37-62.29-23-98.95-20.75-11.66.72-23.71,1.46-35,1.27a178.3,178.3,0,0,1-44.29-6.59C288.1,879.06,248,852.48,216,815.61c-34-39.14-61.61-88.05-86.89-153.92-10.35-27-18.92-51.38-19.08-77.31-.14-23.08,9.39-53.63,36.54-70.13,17.12-10.41,37.25-13.19,58.56-16.13,2.63-.36,5.26-.72,7.9-1.1,20.41-2.94,41.82-6.92,59.52-20.14,31.81-23.76,38.71-69.63,44.79-110.09l.89-5.91c2.71-17.6,8.3-43.07,19.62-64.46,11.43-21.62,26.21-34.46,43.91-38.16l.15.7-.15-.7c47.11-9.85,66.9,31.12,84.36,67.27,7.43,15.38,14.45,29.91,23,39.84,14.94,17.27,32,26,50.77,26h.5c26.66-.22,56.4-18.34,83.73-51,6.69-8,12.93-15.34,19.06-22.45,77-89.2,166.68-176.92,300.65-214.46,23-6.43,44-8.89,62.42-7.28,22.84,2,41.07,10.21,54.18,24.48,12.26,13.3,19,31.62,19.4,53,.37,18.35-3.92,38.81-12.1,57.61a346.91,346.91,0,0,1-18.14,34.93q-2.16,3.74-4.34,7.46c-10.94,18.75-22.25,38.13-29.22,59.26-16.25,49.51-6.26,107.5,25.45,147.76a149.29,149.29,0,0,0,35.6,32.42,156.09,156.09,0,0,0,103.52,24.69c48.62-5.77,91.51-33.55,129.34-58.06l1.92-1.25c11.18-7.24,22.74-14.72,34.23-21.63,70.34-42.33,137.47-60.82,199.5-55A206.14,206.14,0,0,1,1644,438.3c30.36,21.51,51.8,49.65,62,81.38a140.89,140.89,0,0,1,6.73,43.43c0,33.2-11,67.11-31.81,98.08a220.87,220.87,0,0,1-78.52,71c-40.95,21.68-87,31.58-126.89,39.15-50.56,9.66-92.54,15.75-128.36,18.61a548.37,548.37,0,0,1-63.87,1.64c-14.84-.57-29.13-1.94-43-3.28-28.76-2.77-55.92-5.39-88.4-1.47-33,4-82.81,13.62-133.13,37-23.84,11.07-45.43,25.15-62.43,40.72-18.5,16.94-31,35.28-36.07,53-11.14,38.63,8.15,67.78,28.87,94.32,2.66,3.4,5.44,6.85,8.12,10.18,12.82,16,26.08,32.45,33.14,50.76a80.11,80.11,0,0,1,4.77,41.79c-1.81,12.27-6.82,25.59-14.9,39.6-15.47,26.58-38.13,51.76-62.16,69.08-21.29,15.35-45.2,26-69.16,30.94a150,150,0,0,1-53.53,1.69c-8.48-1.31-17.08-3.44-25.4-5.49-21.54-5.32-43.81-10.83-68.7-4-22.86,6.27-42.81,22.07-62.1,37.36-18.44,14.6-37.51,29.71-59.46,37a89.53,89.53,0,0,1-28.34,4.56ZM439.86,893c26,0,50.53,4.08,68.23,22.51,23.6,24.46,20.28,61.49,10.26,85.77-7.54,18.28-18.73,34.07-30.58,50.78-5.59,7.9-11.38,16.06-16.78,24.55-15.68,24.66-27.05,51.53-32.89,77.71-6.65,29.9-6.07,57.89,1.75,83.18,16.44,53.17,71.09,91.64,121.83,85.79a87.25,87.25,0,0,0,17.57-3.9c21.72-7.21,40.69-22.23,59-36.76,19.41-15.38,39.47-31.27,62.61-37.61,25.25-7,47.71-1.41,69.42,4,8.29,2,16.86,4.16,25.28,5.47a148.5,148.5,0,0,0,53-1.68c23.77-4.86,47.49-15.47,68.61-30.7,23.88-17.21,46.39-42.23,61.77-68.64,8-13.84,12.93-27,14.71-39.09a78.66,78.66,0,0,0-4.68-41.07c-7-18.1-20.17-34.51-32.93-50.37-2.68-3.34-5.45-6.79-8.13-10.2-20.94-26.84-40.44-56.32-29.12-95.6,5.18-18,17.79-36.58,36.49-53.7,17.1-15.66,38.81-29.83,62.79-41,50.49-23.44,100.5-33.11,133.56-37.1,32.63-3.94,59.87-1.31,88.71,1.47,13.8,1.33,28.07,2.71,42.87,3.27a547.76,547.76,0,0,0,63.71-1.63c35.76-2.86,77.69-9,128.2-18.6,39.82-7.55,85.72-17.41,126.49-39a219.29,219.29,0,0,0,78-70.48c20.63-30.74,31.54-64.38,31.57-97.29a139.59,139.59,0,0,0-6.66-43c-10.09-31.43-31.34-59.32-61.45-80.65a204.66,204.66,0,0,0-97.61-36.19c-61.73-5.81-128.56,12.62-198.63,54.78-11.47,6.9-23,14.38-34.19,21.61l-1.92,1.25c-38,24.59-81,52.47-130,58.28a157.54,157.54,0,0,1-104.47-24.91,150.38,150.38,0,0,1-35.94-32.74c-32-40.62-42.09-99.14-25.69-149.08,7-21.28,18.37-40.73,29.35-59.54q2.17-3.72,4.34-7.45a345.31,345.31,0,0,0,18.06-34.79c8.09-18.62,12.35-38.86,12-57-.43-21-7-39-19-52.05-12.87-14-30.78-22.07-53.25-24-18.28-1.58-39.11.85-61.92,7.24-133.6,37.43-223.11,125-300,214-6.12,7.11-12.35,14.44-19,22.44-27.61,33-57.73,51.3-84.82,51.52h-.51c-19.19,0-36.63-8.92-51.85-26.51-8.72-10.08-15.77-24.69-23.25-40.16-8.85-18.32-18-37.27-30.79-50.57-14.44-15-31.45-20.22-52-15.92-17.26,3.61-31.71,16.21-42.94,37.43s-16.78,46.52-19.46,64l-.89,5.9c-6.13,40.74-13.07,86.91-45.35,111-18,13.42-39.58,17.44-60.18,20.41-2.63.38-5.27.74-7.9,1.1-21.16,2.92-41.15,5.68-58,15.93-26.64,16.2-36,46.21-35.85,68.9.16,25.69,8.69,50,19,76.8,25.23,65.72,52.76,114.49,86.64,153.5,31.84,36.66,71.66,63.09,112.13,74.42a176.88,176.88,0,0,0,43.93,6.54c11.22.19,23.24-.55,34.87-1.27C418.64,893.7,429.38,893,439.86,893Z"/><path d="M548.6,1310.51c-48.31,0-97.51-38.19-112.28-88.68-13.51-46.17-2.56-103.7,30-157.83,4.81-8,9.91-15.67,14.84-23.1,11-16.57,21.37-32.21,28.05-50.07,8.6-23,10.64-58-11.92-80.78-23.86-24.27-60.42-22.62-95.78-21-11.41.51-23.21,1.05-34.25.66a174.5,174.5,0,0,1-42.82-7.09c-39.38-11.71-77.73-38.13-108-74.4C183.82,769,157,718.51,136.7,658c-8.29-24.72-15.65-49-14.62-74,1.14-28,15.35-52.43,38-65.39,16.34-9.34,35.31-12.11,55.39-15,3.28-.47,6.57-.95,9.86-1.47,23.23-3.62,41.95-8.53,57.78-20.75,30.77-23.76,37.78-68.89,44-108.7l.82-5.25c2.76-17.39,8.31-42.52,19.11-63.5,11-21.33,25.1-34.13,42-38.05l.16.7-.16-.7c44.58-10.36,63.58,27.44,80.35,60.79,7.12,14.16,13.85,27.54,22,36.59,14.25,15.77,30.5,23.57,48.24,23.25,25.52-.49,54.09-18.14,80.44-49.7,6.41-7.67,12.4-14.73,18.32-21.59,47.73-55.3,87.54-93.88,129.09-125.1,50.7-38.08,103.27-63.94,160.71-79C957,103.49,1010,95.84,1040.94,130c11.83,13,18.43,30.86,19.09,51.61.57,17.78-3.26,37.7-10.78,56.09a337.78,337.78,0,0,1-16.75,34.18q-1.93,3.53-3.88,7c-10.19,18.45-20.72,37.52-27.11,58.23-14.82,48.44-4.48,104.8,26.35,143.58a145.53,145.53,0,0,0,34.79,31.44,152.94,152.94,0,0,0,100.89,23.82c44.21-5.22,81.73-27.5,126.2-56.08l2.55-1.64c10.69-6.87,21.75-14,32.73-20.55,68.84-41.25,134.19-59.47,194.22-54.14a199.93,199.93,0,0,1,95.89,35.11c29.67,20.88,50.59,48.22,60.5,79.06a135.88,135.88,0,0,1,6.48,42.3c-.15,32.3-11.09,65.21-31.63,95.16a214.33,214.33,0,0,1-77.14,68.18c-40.11,20.67-85.79,30.13-126.09,38.47l-3.56.75c-43.82,9.15-85.21,17.8-120.36,23-22.44,3.31-41.58,5.1-58.52,5.48-13.73.29-26.63-.42-39.1-1.12-24.36-1.36-47.37-2.65-76.43,3-25.17,4.86-75.24,16.7-127.93,41.36-51.45,24.08-88.87,56.93-100.09,87.86-12.83,35.26,3.88,60.33,22.1,83,2.44,3,5,6.07,7.45,9,11.3,13.53,23,27.52,28.68,43.41a66.09,66.09,0,0,1,2.15,37.4c-2.42,11.13-8,23.49-16.53,36.72-16.85,26.08-39,50.14-62.3,67.75-20.64,15.59-43.59,27-66.37,33.1a148.39,148.39,0,0,1-50.68,4.9c-8.14-.69-16.42-2.16-24.42-3.57-20.48-3.63-41.66-7.37-65.79.19-21.39,6.68-40.6,21.43-59.17,35.7-19.23,14.76-39.11,30-61.86,36.94a88.57,88.57,0,0,1-17.74,3.49Q552.7,1310.52,548.6,1310.51ZM428.14,886.8c26.6,0,51.95,3.68,70.21,22.25,10.09,10.21,16.31,23.91,18,39.63a95.43,95.43,0,0,1-5.75,42.65c-6.74,18-17.17,33.73-28.2,50.36-4.92,7.41-10,15.08-14.81,23-32.39,53.79-43.29,110.9-29.89,156.68,15.43,52.73,68.79,91.89,119,87.29a87.2,87.2,0,0,0,17.45-3.42c22.51-6.84,42.28-22,61.4-36.72,18.68-14.34,38-29.17,59.63-35.92,24.45-7.67,45.81-3.9,66.46-.24,8.34,1.47,16.21,2.87,24.29,3.55a147.11,147.11,0,0,0,50.2-4.85c22.59-6,45.37-17.38,65.87-32.86,23.19-17.51,45.19-41.44,62-67.39,8.45-13.08,14-25.28,16.33-36.25a64.6,64.6,0,0,0-2.1-36.61c-5.61-15.64-17.21-29.54-28.43-43-2.47-2.95-5-6-7.46-9-8.69-10.81-18.25-23.8-23.22-38.23-5.21-15.1-4.92-30.19.89-46.13,11.34-31.29,49-64.43,100.83-88.67,52.82-24.73,103-36.6,128.25-41.47,29.24-5.66,52.34-4.37,76.79-3,12.44.7,25.31,1.42,39,1.12,16.88-.38,36-2.16,58.34-5.46,35.11-5.21,76.48-13.85,120.28-23l3.56-.75c40.21-8.32,85.79-17.76,125.72-38.35a212.84,212.84,0,0,0,76.62-67.7c20.38-29.72,31.23-62.35,31.38-94.37a134.47,134.47,0,0,0-6.41-41.85c-9.82-30.55-30.55-57.63-60-78.33a198.69,198.69,0,0,0-95.19-34.86c-59.73-5.29-124.79,12.85-193.36,53.94-11,6.58-22,13.67-32.7,20.54l-2.54,1.63c-35.09,22.55-78.76,50.62-126.81,56.3a154.39,154.39,0,0,1-101.84-24,146.55,146.55,0,0,1-35.13-31.75c-31.12-39.14-41.55-96-26.6-144.89,6.43-20.85,17-40,27.23-58.5,1.29-2.34,2.59-4.68,3.87-7a337,337,0,0,0,16.69-34c20.24-49.51,9.12-87.32-8-106.2-30.41-33.55-82.85-26-111.4-18.45-57.26,15.06-109.66,40.85-160.21,78.82C726.81,222.43,687.06,261,639.4,316.17c-5.91,6.85-11.9,13.9-18.3,21.57-26.63,31.88-55.57,49.71-81.51,50.21-18.19.33-34.79-7.63-49.33-23.72C482,355,475.19,341.58,468,327.32c-8.49-16.88-17.27-34.35-29.46-46.45-13.75-13.65-29.87-18.09-49.29-13.59-17.09,4-47.6,22.29-60,100.39l-.81,5.24C322.25,413,315.19,458.41,284,482.52c-16.06,12.41-35,17.38-58.43,21-3.3.51-6.59,1-9.87,1.47-19.95,2.91-38.79,5.66-54.89,14.87-22.21,12.71-36.15,36.72-37.27,64.21-1,24.75,6.3,48.87,14.54,73.46,20.22,60.32,47,110.69,79.55,149.71,30.07,36.06,68.17,62.32,107.29,74a172.52,172.52,0,0,0,42.46,7c11,.39,22.75-.14,34.14-.66C410.36,887.2,419.32,886.8,428.14,886.8Z"/><path d="M545.63,1295.72c-22.91,0-46.41-8.54-66.81-24.41-21.82-17-37.68-40.27-44.67-65.62-6.61-24-6.76-50.69-.44-79.38,5.34-24.23,15.44-49.89,29.22-74.19,4.19-7.39,8.56-14.48,12.79-21.33,10.22-16.58,19.87-32.23,25.75-49.9,7.7-23.17,8.11-55.65-13.87-77.33-23.33-23.16-58.54-22.2-92.59-21.27-11.17.3-22.73.62-33.54,0a170.81,170.81,0,0,1-41.35-7.6c-38-12-74.65-38.28-103.13-73.94-31.6-39.55-56.74-90.19-72.72-146.44-7.79-27.45-12.21-48.84-10.16-70.63,2.46-26.06,17.21-48.73,39.46-60.65,15.5-8.3,33.28-11,52.11-13.92,3.9-.6,7.93-1.22,11.91-1.88,19.27-3.24,39.39-8.07,56-21.37,29.73-23.76,36.86-68.17,43.15-107.35l.73-4.55c5.44-33.29,20.3-90.6,58.6-100.48l.18.69-.18-.69c42-10.85,60.27,23.77,76.34,54.31,6.82,12.94,13.25,25.16,21,33.33,13.43,14.15,28.64,21,45.23,20.51,24.37-.79,51.76-18,77.13-48.4,6-7.25,12-14.23,17.58-20.74,45.14-52.29,84.64-90.36,124.32-119.81,48.94-36.33,99.52-60.54,154.63-74,27.79-6.8,78.92-13.18,109,20.56,25.51,28.46,21.54,72.8,9.32,104.8a332.43,332.43,0,0,1-15.37,33.43q-1.71,3.3-3.43,6.6c-9.43,18.14-19.18,36.9-25,57.19a159.37,159.37,0,0,0-2.9,72.78c4.73,24.93,15.15,48,30.13,66.63a142,142,0,0,0,34,30.47,149.83,149.83,0,0,0,98.28,22.94c43.28-5.09,81.34-27.51,123-54.1l3.19-2c10.2-6.5,20.75-13.22,31.22-19.47,67.35-40.19,130.92-58.12,188.94-53.3A193.91,193.91,0,0,1,1586.32,439c29,20.24,49.37,46.77,59,76.73a130.32,130.32,0,0,1,6.23,41.17c-.27,31.41-11.15,63.31-31.45,92.24a208.13,208.13,0,0,1-75.76,65.4c-35.64,17.85-75.35,26.68-113.76,35.23l-11.52,2.57c-23.82,5.41-46.12,11-67.68,16.34-18.52,4.62-36,9-51.8,12.55-21.56,4.86-38.95,7.91-53.16,9.32a334.32,334.32,0,0,1-34.49,1.21c-20.22,0-39.32,0-65.23,7.24A813.86,813.86,0,0,0,1024,844.72c-52.1,24.59-89.16,54.47-101.68,82-14.59,31.92.26,53.71,15.33,71.63,2.27,2.69,4.65,5.4,7,8,9.71,11,19.75,22.49,24,35.88,3.31,10.31,3.16,21.11-.46,33-3,10-9,21.09-18.17,33.83-18.41,25.55-40.58,49.15-62.42,66.43-20.11,15.91-42.09,28.1-63.58,35.26-16.43,5.47-32.56,8.23-47.84,8.1-7.85,0-15.5-.81-23.59-1.62-19.39-1.92-39.43-3.91-62.72,4.33-19.85,7-38.18,20.67-55.9,33.89-20.12,15-40.92,30.52-64.61,37a89.21,89.21,0,0,1-17.61,3C549.69,1295.66,547.66,1295.72,545.63,1295.72ZM415.26,880.49c27.57,0,54.25,3.1,73.34,22,9.92,9.79,16.26,22.9,18.33,37.92a92.51,92.51,0,0,1-4.1,40.88c-5.93,17.83-15.63,33.55-25.89,50.2-4.22,6.84-8.59,13.92-12.76,21.28-41.39,73-35.72,126.87-28.65,152.49,6.9,25.06,22.59,48.1,44.16,64.87,21.94,17.06,47.49,25.56,71.93,23.91a87.24,87.24,0,0,0,17.33-2.95c23.43-6.46,44.12-21.89,64.13-36.82,17.81-13.28,36.23-27,56.29-34.08,23.58-8.35,43.79-6.35,63.33-4.41,8.06.8,15.68,1.56,23.46,1.61,15.15.11,31.1-2.61,47.38-8,21.33-7.11,43.16-19.22,63.14-35,21.74-17.21,43.82-40.69,62.15-66.14,9.09-12.61,15-23.54,18-33.42,3.53-11.61,3.68-22.13.47-32.15-4.2-13.11-14.14-24.43-23.75-35.38-2.31-2.63-4.7-5.35-7-8C921.19,981,906.06,958.78,921,926.1c12.66-27.81,50-57.94,102.38-82.67a814.31,814.31,0,0,1,122.95-45.83c26.1-7.34,45.3-7.32,65.62-7.3a337,337,0,0,0,34.35-1.2c14.15-1.41,31.48-4.45,53-9.29,15.77-3.57,33.26-7.93,51.77-12.55,21.57-5.37,43.88-10.93,67.71-16.34,3.84-.87,7.68-1.72,11.53-2.58,38.32-8.52,78-17.34,113.43-35.11a206.67,206.67,0,0,0,75.23-64.94c20.13-28.7,30.92-60.31,31.19-91.44a129.29,129.29,0,0,0-6.16-40.72c-9.54-29.65-29.76-55.93-58.47-76a192.32,192.32,0,0,0-92.78-33.53c-57.72-4.8-121,13.07-188.08,53.1-10.46,6.24-21,13-31.2,19.45l-3.18,2c-41.86,26.69-80.07,49.2-123.65,54.32a151.31,151.31,0,0,1-99.22-23.16,143.37,143.37,0,0,1-34.32-30.77c-15.13-18.84-25.65-42.1-30.43-67.27a161.09,161.09,0,0,1,2.93-73.43c5.83-20.43,15.62-39.25,25.09-57.46l3.42-6.6a327.9,327.9,0,0,0,15.3-33.27c12.07-31.61,16-75.36-9-103.35C990.71,107,940.18,113.34,912.7,120.07c-54.92,13.45-105.34,37.59-154.12,73.8-39.59,29.38-79,67.39-124.09,119.6-5.62,6.5-11.52,13.47-17.56,20.71-25.64,30.75-53.4,48.12-78.18,48.92-17,.54-32.59-6.5-46.32-21-7.89-8.31-14.37-20.62-21.23-33.65-15.83-30.08-33.77-64.17-74.72-53.6-37.52,9.68-52.16,66.39-57.55,99.33l-.73,4.55c-6.33,39.43-13.5,84.13-43.67,108.23-16.91,13.51-37.24,18.4-56.7,21.67-4,.67-8,1.29-11.94,1.89-18.7,2.87-36.36,5.58-51.65,13.76C152.42,536,138,558.27,135.54,583.85c-2,21.57,2.36,42.82,10.11,70.11,15.92,56.07,41,106.54,72.45,145.93,28.32,35.45,64.7,61.54,102.45,73.47a168.81,168.81,0,0,0,41,7.54c10.74.58,22.27.27,33.43,0C401.72,880.68,408.52,880.49,415.26,880.49Z"/><path d="M542.83,1281c-23.39,0-47.33-9-67.84-25.64-21.22-17.2-36.5-40.57-43-65.79-6-23.18-5.92-49.12.22-77.1,5.13-23.41,14.32-47.71,27.31-72.22,3.52-6.64,7.16-13,10.67-19.22,9.49-16.7,18.45-32.48,23.51-50.06,6.4-22.23,5.6-53.31-15.83-73.88-22.79-22.05-56.63-21.78-89.35-21.51-11,.1-22.29.19-32.87-.6a167.23,167.23,0,0,1-39.87-8.1c-36.67-12.33-71.58-38.42-98.29-73.49-30.31-39.75-53.62-90.43-65.63-142.69-5.79-25.18-9-46.27-5.7-67.3a74.61,74.61,0,0,1,40.91-55.9c14.63-7.28,31.18-9.93,48.71-12.74,4.62-.74,9.39-1.5,14.1-2.35,17.55-3.18,37.73-8.27,54.3-22,28.72-23.76,36-67.47,42.35-106l.64-3.8c12.22-72.36,37.27-94,56.14-99.41l.19.69-.19-.69c39.49-11.32,56.93,20.1,72.32,47.83,6.51,11.71,12.65,22.78,20,30.08,12.61,12.52,26.82,18.51,42.23,17.78,23.22-1.1,49.44-17.84,73.81-47.13,5.76-6.92,11.42-13.61,16.83-19.88,43.19-50,81.18-86.4,119.57-114.52,47.17-34.55,95.76-57.13,148.55-69,26.71-6,75.92-11.14,105.25,22.24,24.4,27.64,21.33,70.77,10.33,101.91a327.61,327.61,0,0,1-14,32.67c-1,2.05-2,4.09-3,6.14-8.68,17.85-17.64,36.31-22.84,56.19-12.14,47-1.37,98.86,28.12,135.24a138.74,138.74,0,0,0,33.17,29.48,146.71,146.71,0,0,0,95.66,22.07c42.46-5,79.42-26.54,119.91-52.12l3.82-2.41c9.71-6.13,19.76-12.48,29.72-18.4,65.87-39.13,127.66-56.78,183.66-52.46a187.78,187.78,0,0,1,91.07,32.46c28.26,19.61,48.15,45.33,57.51,74.41a124.72,124.72,0,0,1,6,40c-.4,30.52-11.21,61.41-31.28,89.32a201.87,201.87,0,0,1-74.37,62.62c-32.09,15.6-67.58,23.84-101.9,31.81-7.42,1.72-15.09,3.51-22.58,5.33-37.23,9.14-71.79,20.2-99.55,29.08l-15.48,4.94c-21.42,6.74-36.16,10.8-47.79,13.16a232.1,232.1,0,0,1-29.32,3.64c-16.27,1.28-31.63,2.48-54.59,11.41-44.78,17.42-83.22,33.82-117.53,50.15-30.68,14.59-84.9,43.88-103.3,76.09-14.68,25.59-7.19,42.6,8.58,60.27,2,2.25,4.14,4.5,6.2,6.68,8.22,8.7,16.72,17.69,19.66,28.74,2.3,8.61,1.29,18-3.09,28.61-3.58,8.71-10.06,18.83-19.8,30.94-14.57,18.12-37.25,44.11-62.55,65.1-19.59,16.24-40.61,29.18-60.78,37.41-15.51,6.33-30.64,10.13-45,11.31-7.63.62-15.09.52-23,.42-18.22-.23-37.07-.48-59.43,8.39-18.21,7.19-35.49,19.73-52.19,31.86-21.15,15.36-43,31.24-67.79,37.36a87.93,87.93,0,0,1-17.5,2.52C545.38,1281,544.11,1281,542.83,1281ZM399.32,874.08c29.5,0,58.85,2,79.53,22,21.89,21,22.73,52.68,16.21,75.31-5.1,17.74-14.1,33.59-23.64,50.36-3.5,6.18-7.13,12.56-10.65,19.19-16.5,31.13-42,91.78-27.41,148.29,6.44,24.93,21.54,48,42.53,65,21.35,17.31,46.44,26.28,70.7,25.24A86.49,86.49,0,0,0,563.8,1277c24.5-6,46.26-21.85,67.3-37.12,16.77-12.19,34.12-24.78,52.5-32,22.62-9,41.61-8.72,60-8.49,7.87.1,15.29.2,22.86-.42,14.2-1.16,29.19-4.93,44.56-11.2,20-8.18,40.93-21,60.41-37.19,25.21-20.91,47.82-46.83,62.35-64.9,9.65-12,16.06-22,19.59-30.59,4.25-10.33,5.24-19.4,3-27.7-2.85-10.69-11.22-19.55-19.32-28.11-2.07-2.19-4.21-4.46-6.23-6.72-16.18-18.13-23.86-35.6-8.75-61.93,18.59-32.54,73.09-62,103.92-76.68,34.35-16.33,72.82-32.75,117.63-50.18,23.16-9,38.62-10.22,55-11.5a230.43,230.43,0,0,0,29.16-3.63c11.58-2.34,26.27-6.39,47.64-13.12,4.95-1.56,10.11-3.22,15.47-4.93,27.79-8.89,62.37-19.95,99.65-29.11,7.5-1.83,15.17-3.61,22.6-5.33,34.24-8,69.65-16.18,101.59-31.7a200.47,200.47,0,0,0,73.84-62.18c19.89-27.67,30.62-58.27,31-88.5a123.4,123.4,0,0,0-5.92-39.58c-9.26-28.77-29-54.24-57-73.66a186.23,186.23,0,0,0-90.36-32.21c-55.7-4.3-117.2,13.29-182.82,52.26-10,5.91-20,12.25-29.69,18.38l-3.81,2.41c-40.64,25.67-77.76,47.33-120.51,52.33a148.12,148.12,0,0,1-96.59-22.28,140.24,140.24,0,0,1-33.52-29.79c-29.77-36.72-40.65-89-28.39-136.5,5.23-20,14.23-38.54,22.93-56.45q1.5-3.08,3-6.14A322.19,322.19,0,0,0,1010.84,250c10.87-30.75,13.94-73.3-10.05-100.49-28.85-32.82-77.46-27.74-103.87-21.79-52.59,11.86-101,34.35-148,68.79-38.29,28.05-76.21,64.37-119.33,114.3-5.4,6.26-11.06,12.94-16.81,19.85-24.64,29.61-51.21,46.52-74.84,47.64-15.83.76-30.4-5.37-43.31-18.19-7.49-7.44-13.68-18.59-20.24-30.4-15.13-27.26-32.28-58.16-70.68-47.15-18.47,5.3-43,26.65-55.12,98.27l-.64,3.81c-6.43,38.81-13.72,82.8-42.85,106.9-16.82,13.93-37.22,19.09-54.95,22.29-4.73.86-9.51,1.63-14.14,2.37-17.41,2.78-33.86,5.42-48.29,12.6a73.18,73.18,0,0,0-40.13,54.84c-3.24,20.81-.08,41.74,5.67,66.76,12,52.07,35.18,102.55,65.37,142.15,26.55,34.84,61.22,60.76,97.61,73a165.51,165.51,0,0,0,39.52,8c10.53.77,21.83.68,32.76.59C392.09,874.11,395.71,874.08,399.32,874.08Z"/><path d="M540.05,1266.3c-23.9,0-48.3-9.52-68.89-26.92s-35.32-40.87-41.35-66c-9.82-40.84-1-89.65,26.28-145.06,2.82-5.74,5.69-11.29,8.47-16.65,8.81-17,17.13-33.05,21.35-50.68,6.58-27.51-.07-53.84-17.78-70.44-22.29-20.89-54.75-21.31-86.15-21.71-10.72-.14-21.82-.28-32.18-1.27A163,163,0,0,1,311.41,859c-35.31-12.63-68.49-38.56-93.45-73a340,340,0,0,1-58.53-139c-3.53-20.47-6.13-42.39-1.23-64,5.1-22.47,20.54-41.11,42.36-51.15,13.7-6.29,29-8.82,45.18-11.5,5.37-.89,10.92-1.81,16.41-2.88,30.06-5.84,43.88-15.15,52.56-22.6,27.7-23.77,35.07-66.82,41.57-104.79l.51-3c6.84-39.23,21.71-88.13,53.68-98.33l.21.68-.21-.68c36.94-11.78,53.6,16.44,68.3,41.33,6.2,10.5,12.05,20.41,19,26.84,11.79,10.93,25,16,39.26,15.07,22.07-1.44,47.1-17.73,70.47-45.87,5.48-6.6,10.89-13,16.09-19,41.22-47.73,77.7-82.43,114.81-109.21,45.42-32.78,92-53.72,142.46-64,25.64-5.24,72.93-9.11,101.47,23.92,10.68,12.31,16.8,28.28,18.17,47.48,1.47,20.59-2.9,39.39-6.84,51.54a317.31,317.31,0,0,1-12.6,31.91l-2.55,5.66c-7.91,17.57-16.09,35.73-20.69,55.21-10.68,46,.44,96.2,29,131.07a135.42,135.42,0,0,0,32.36,28.51,143.6,143.6,0,0,0,93,21.19c41.56-4.83,79-26.47,116.76-50.14l4.64-2.9c9.16-5.73,18.64-11.66,28-17.22,65.3-38.6,123.64-55.5,178.37-51.62a181.49,181.49,0,0,1,88.65,31.14c27.57,19,47,43.89,56,72.07a119.92,119.92,0,0,1,5.74,38.91c-.52,29.63-11.28,59.5-31.12,86.38a195.83,195.83,0,0,1-73,59.86c-29.2,13.75-61.29,21.38-92.32,28.76-10.32,2.45-21,5-31.35,7.7-41.75,11.06-77.82,25.35-110.59,39.14l-.33.14c-16.72,7-31.16,13.07-42.06,16.86a171.12,171.12,0,0,1-23.76,6.15c-12.44,2.53-24.19,4.92-44.36,15.51-19.42,10.19-47.95,23.8-81,39.56-10.21,4.87-20.73,9.89-31.35,15-55,26.4-90.34,50-104.91,70.21-18.07,24.92-8.54,38.31,1.81,48.9,1.73,1.76,3.58,3.51,5.37,5.2,6.77,6.39,13.76,13,15.38,21.75,1.31,7-.52,14.71-5.73,24.21-4.11,7.49-10.72,16.14-21.42,28-18.5,20.57-40.13,44.16-62.68,63.77-19.08,16.59-39.13,30.27-58,39.56-14.61,7.2-28.78,12.08-42.13,14.51-7.5,1.36-14.88,2-22.69,2.62-17,1.42-34.57,2.89-55.85,12.29C662,1204,646,1215.32,630.48,1226.31c-22.35,15.85-45.46,32.25-71.52,37.93a88.64,88.64,0,0,1-17.37,2ZM426.69,287.48a51.94,51.94,0,0,0-15.79,2.66c-31.29,10-45.93,58.38-52.7,97.22l-.51,3c-6.54,38.21-14,81.53-42.05,105.64-16.78,14.4-37.25,19.81-53.22,22.92-5.51,1.07-11.07,2-16.45,2.88-16.09,2.66-31.29,5.18-44.81,11.39-21.42,9.85-36.57,28.14-41.57,50.16-4.84,21.33-2.26,43.08,1.25,63.41a338.46,338.46,0,0,0,58.28,138.36c24.79,34.23,57.73,60,92.77,72.51a161.62,161.62,0,0,0,38.05,8.55c10.3,1,21.36,1.12,32.06,1.26,31.67.41,64.41.83,87.11,22.09,18.09,17,24.89,43.81,18.19,71.82-4.26,17.8-12.62,33.93-21.47,51-2.77,5.35-5.64,10.89-8.46,16.62-27.1,55.1-35.91,103.58-26.17,144.1,6,24.8,20.48,48,40.89,65.21,20.76,17.54,45.42,27,69.47,26.57a87.5,87.5,0,0,0,17.1-2c25.77-5.62,48.76-21.93,71-37.7,15.54-11,31.61-22.43,48.19-29.72,21.5-9.5,39.2-11,56.31-12.4,7.78-.65,15.12-1.26,22.55-2.61,13.22-2.4,27.27-7.24,41.76-14.38,18.74-9.23,38.68-22.85,57.67-39.36,22.49-19.56,44.09-43.11,62.56-63.65,10.62-11.81,17.17-20.37,21.23-27.77,5-9.19,6.82-16.58,5.58-23.26-1.54-8.3-8.06-14.45-15-21-1.8-1.7-3.67-3.46-5.41-5.24-5-5.11-10.88-12.1-12.14-21s2.09-18.56,10.19-29.74c14.71-20.38,50.19-44.15,105.45-70.66,10.62-5.1,21.15-10.12,31.36-15,31.65-15.09,61.55-29.36,80.94-39.54,20.35-10.69,32.2-13.09,44.75-15.64a170.82,170.82,0,0,0,23.57-6.1c10.86-3.77,25.28-9.82,42-16.83l.33-.13c32.81-13.82,68.94-28.13,110.77-39.21,10.37-2.72,21.06-5.26,31.39-7.72,31-7.35,63-15,92-28.65a194.48,194.48,0,0,0,72.43-59.42c19.67-26.64,30.33-56.23,30.84-85.55a118.45,118.45,0,0,0-5.67-38.45c-9-27.88-28.17-52.55-55.48-71.33a180,180,0,0,0-87.94-30.89c-54.43-3.84-112.5,13-177.55,51.43-9.38,5.54-18.85,11.47-28,17.2l-4.64,2.9c-38,23.75-75.5,45.47-117.36,50.34a145.06,145.06,0,0,1-94-21.4,136.8,136.8,0,0,1-32.7-28.81c-28.85-35.21-40.08-85.9-29.3-132.31,4.63-19.61,12.84-37.84,20.78-55.46l2.54-5.66a315.89,315.89,0,0,0,12.55-31.77c18.58-57.39-3.76-89.25-11-97.64-28.07-32.48-74.77-28.64-100.1-23.46-114.8,23.48-194.07,100.52-256.48,172.78-5.19,6-10.59,12.4-16.07,19-23.62,28.44-49,44.92-71.48,46.38-14.66,1-28.23-4.24-40.32-15.45-7.09-6.57-13-16.57-19.25-27.16C465.42,310.31,451.94,287.48,426.69,287.48Z"/><path d="M537.17,1251.67h-.65c-49.41-.42-97.23-41.88-108.88-94.4-8.55-38.55-.37-84.61,25-140.8,2.08-4.61,4.18-9.09,6.2-13.42,8.55-18.29,15.94-34.09,19.27-52,4.9-26.27-2.48-51.31-19.73-67-21.67-19.71-52.65-20.8-82.61-21.86-10.61-.37-21.59-.76-31.82-2a158.53,158.53,0,0,1-36.92-9.13c-33.95-12.94-65.41-38.71-88.6-72.56C190.86,738.29,172.11,689,167,643.32c-2.89-25.88-1.92-44,3.24-60.63,6.44-20.74,22-37.21,43.81-46.39,12.71-5.33,26.69-7.71,41.5-10.22,6.17-1,12.55-2.13,18.86-3.45,22.39-4.67,38.06-11.83,50.83-23.21,26.69-23.8,34.19-66.2,40.8-103.61l.38-2.14c10.09-56,27.31-88.76,51.21-97.26l.24.68-.24-.68c34.36-12.22,50.26,12.78,64.27,34.83,5.89,9.27,11.46,18,18,23.6,11,9.36,23.19,13.53,36.31,12.39,26.82-2.32,51.3-25.55,67.11-44.63,5.23-6.31,10.39-12.42,15.35-18.16C657.9,259,692.88,226,728.74,200.56c43.66-31,88.26-50.3,136.36-59.06,57.23-10.42,85.77,11.57,97.68,25.6,18.86,22.1,23.47,58,12.34,96.12a311.82,311.82,0,0,1-11.22,31.15l-2.13,5.17c-7.14,17.28-14.53,35.16-18.52,54.24-9.21,44.91,2.24,93.54,29.9,126.9a132,132,0,0,0,31.55,27.53,140.54,140.54,0,0,0,90.42,20.32c40.74-4.71,77-25.47,113.63-48.15l5.33-3.31c8.65-5.36,17.6-10.91,26.47-16.12,63.82-37.55,120.43-54.17,173.09-50.79A175.47,175.47,0,0,1,1499.88,440c26.87,18.33,45.73,42.45,54.54,69.75a114.17,114.17,0,0,1,5.48,37.78c-.63,28.73-11.33,57.58-30.94,83.44a190.26,190.26,0,0,1-71.58,57.1c-26.8,12.21-56.07,19.23-84.38,26-12.7,3.05-25.83,6.2-38.48,9.77-35.08,10-69.79,24.45-106.14,44.25-11.26,6.12-20.89,11.63-28.62,16q-4.63,2.65-8.36,4.76a166.2,166.2,0,0,1-17.79,8.64c-8.73,3.75-17,7.29-34.56,19.64-20.73,14.56-59.8,36.05-107.17,59-44.22,21.39-87.73,44-106.54,64.34-9,9.72-13.25,17.63-12.9,24.18.24,4.63,2.69,8.74,7.95,13.33,1.41,1.22,3,2.42,4.46,3.58,5.34,4.12,10.86,8.38,11.19,15,.27,5.29-2.39,11.57-8.38,19.76-5.07,6.94-12.88,15.06-23,25.13-6.16,6.11-12.59,12.7-19.4,19.67-14,14.32-28.43,29.11-43.41,42.78-18.63,17-37.71,31.42-55.18,41.71-13.74,8.1-27,14.05-39.27,17.7-7.52,2.22-15,3.64-22.84,5.15-15.66,3-31.85,6.08-51.82,15.87-14.52,7.08-28.36,16.72-43,26.93-23.76,16.55-48.33,33.66-75.93,38.87A88.5,88.5,0,0,1,537.17,1251.67ZM434.86,294.58a49.81,49.81,0,0,0-16.74,3.18c-23.38,8.32-40.29,40.67-50.28,96.16l-.38,2.14c-6.65,37.64-14.2,80.3-41.26,104.43-13,11.56-28.84,18.82-51.48,23.55-6.35,1.32-12.74,2.4-18.92,3.45-14.73,2.5-28.63,4.86-41.18,10.13-21.42,9-36.7,25.17-43,45.49-5.09,16.42-6.05,34.38-3.18,60.06,5.08,45.45,23.74,94.5,51.2,134.57,23,33.61,54.25,59.2,87.93,72a157.14,157.14,0,0,0,36.58,9.05c10.17,1.22,21.12,1.61,31.7,2,30.22,1.07,61.46,2.17,83.52,22.23,17.62,16,25.17,41.56,20.18,68.32-3.37,18-11.15,34.69-19.38,52.31-2,4.33-4.12,8.8-6.2,13.4C428.71,1073,420.55,1118.72,429,1157c11.51,51.89,58.73,92.86,107.5,93.28a86.73,86.73,0,0,0,17-1.54c27.29-5.16,51.73-22.18,75.37-38.65,14-9.78,28.58-19.91,43.2-27,20.15-9.88,36.43-13,52.18-16,7.84-1.5,15.26-2.92,22.71-5.12,12.19-3.61,25.3-9.52,38.95-17.56,17.38-10.25,36.38-24.61,54.94-41.54,14.94-13.63,29.38-28.42,43.34-42.72,6.82-7,13.25-13.56,19.42-19.68,10.11-10,17.87-18.1,22.88-25,5.79-7.92,8.37-13.91,8.12-18.85-.31-5.92-5.33-9.8-10.64-13.9-1.52-1.17-3.09-2.38-4.53-3.64-3.75-3.27-8.1-7.86-8.44-14.33-.37-7,4-15.21,13.28-25.22,19-20.52,62.62-43.21,107-64.66,47.3-22.88,86.29-44.33,107-58.85,17.71-12.43,26-16,34.81-19.78a166.54,166.54,0,0,0,17.66-8.57c2.48-1.4,5.27-3,8.35-4.76,7.74-4.43,17.37-9.94,28.64-16.06,36.45-19.86,71.26-34.37,106.44-44.38,12.68-3.57,25.82-6.73,38.53-9.78,28.25-6.77,57.45-13.78,84.12-25.93a188.82,188.82,0,0,0,71-56.66c19.43-25.62,30-54.19,30.65-82.61a112.94,112.94,0,0,0-5.41-37.31c-8.72-27-27.38-50.86-54-69a174.05,174.05,0,0,0-85.53-29.56c-52.35-3.36-108.7,13.19-172.27,50.59-8.85,5.21-17.79,10.75-26.44,16.11l-5.33,3.3c-36.77,22.78-73.18,43.62-114.22,48.36a142,142,0,0,1-91.34-20.53,133.17,133.17,0,0,1-31.89-27.82c-27.93-33.69-39.5-82.78-30.2-128.11,4-19.21,11.43-37.15,18.6-54.5l2.13-5.16a311.74,311.74,0,0,0,11.17-31c11-37.63,6.49-73.06-12.06-94.79-11.71-13.8-39.81-35.42-96.34-25.12-47.88,8.72-92.3,28-135.78,58.81C693.81,227.1,658.91,260,619.75,305.37c-5,5.73-10.11,11.84-15.33,18.14-16,19.29-40.77,42.78-68.09,45.15-13.51,1.16-26.08-3.12-37.36-12.74-6.69-5.7-12.31-14.55-18.26-23.91C469,313.55,456.92,294.58,434.86,294.58Z"/><path d="M534.42,1237.1c-1,0-2,0-3,0-48.87-1.69-95.43-43.82-106-95.92-9.45-46.6,7.74-97.44,23.77-136.54q1.93-4.71,3.82-9.22c8-19.23,14.93-35.83,17.29-54.21,1.55-12,2.54-42.24-21.68-63.56-21.09-18.57-50.66-20.32-79.26-22-10.43-.61-21.22-1.25-31.28-2.72a155.34,155.34,0,0,1-35.44-9.63c-32.59-13.26-62.33-38.86-83.75-72.11-26.16-40.57-42.32-88.5-44.35-131.49-1.14-24.21,1.17-41.35,7.72-57.31,7.64-18.64,23.71-33.42,45.26-41.61,11.63-4.43,24.26-6.6,37.63-8.89,7-1.21,14.29-2.46,21.5-4.07,21-4.71,36.63-12.28,49.08-23.83,25.71-23.84,33.34-65.64,40.07-102.51l.22-1.2c10.37-55.8,26.31-87.26,48.73-96.17l.27.66-.27-.66c31.8-12.64,46.91,9.12,60.24,28.31,5.58,8.05,10.86,15.65,17,20.36,14.56,11.21,31.13,13.06,49.23,5.49,15.51-6.48,32.07-20,47.89-39.17,4.93-6,9.85-11.8,14.6-17.3,53.77-62.23,129.14-135.82,235.6-152.64,54.72-8.64,82.31,13.39,93.89,27.29,9.81,11.71,15.72,26.76,17.56,44.72,1.55,15.14.09,31.9-4.21,48.5A313.12,313.12,0,0,1,946.75,300l-1.89,5.05C938.54,321.94,932,339.4,928.68,358c-7.81,43.76,4,90.79,30.79,122.74a128.7,128.7,0,0,0,30.75,26.55A137.39,137.39,0,0,0,1078,526.68c39.9-4.58,76.46-25.32,110.49-46.17l6.08-3.73c8.12-5,16.52-10.14,24.85-15,62.35-36.49,117.25-52.83,167.8-49.95a169.33,169.33,0,0,1,83.83,28.49c26.17,17.69,44.52,41,53,67.42a108.84,108.84,0,0,1,5.24,36.65c-.75,27.83-11.4,55.66-30.78,80.49a184.6,184.6,0,0,1-70.18,54.35c-24.76,10.88-51.66,17.33-77.67,23.57-14.68,3.52-29.86,7.16-44.39,11.54a370.08,370.08,0,0,0-101.68,49.37c-12.49,8.63-24,17.59-31.55,24.58-7.28,6.74-10.51,9.89-14.59,13.88-4.34,4.23-9.74,9.5-22,21-18.56,17.47-57.64,41.77-102,63.41-5.63,2.75-11.28,5.49-16.9,8.21-37.82,18.31-73.54,35.61-91.28,50.26-11.25,9.23-16.57,15.89-16.26,20.37.15,2.14,1.54,3.91,4.5,5.71a38.77,38.77,0,0,0,3.52,1.82c4,1.89,8.07,3.85,7.07,8.44-.78,3.57-4.19,8.27-11,15.23-4.61,4.68-11,10.27-18.39,16.75l-6.23,5.47c-12,10.57-24.61,23.18-38,36.54-8.16,8.15-16.59,16.57-24.94,24.57-18.26,17.49-36.37,32.65-52.38,43.86-13.14,9.2-25.05,16-36.41,20.89A242.35,242.35,0,0,1,714,1153c-13.47,4.19-28.73,8.94-47,18.84-12.37,6.67-24.43,15-37.19,23.76-25.44,17.52-51.74,35.63-81.21,40.33A88.23,88.23,0,0,1,534.42,1237.1ZM442.66,301.68a46.92,46.92,0,0,0-17.33,3.7c-21.93,8.72-37.59,39.83-47.85,95.1l-.22,1.2c-6.78,37.09-14.45,79.13-40.51,103.3-12.64,11.73-28.45,19.41-49.74,24.17-7.24,1.62-14.53,2.88-21.57,4.09-13.3,2.28-25.86,4.44-37.37,8.81-21.16,8.05-36.95,22.55-44.44,40.83-6.46,15.75-8.74,32.71-7.61,56.69,2,42.75,18.1,90.42,44.12,130.79,21.26,33,50.77,58.41,83.09,71.55a154,154,0,0,0,35.11,9.55c10,1.46,20.75,2.09,31.16,2.71,28.84,1.7,58.66,3.46,80.11,22.35,24.74,21.78,23.74,52.59,22.16,64.83-2.39,18.56-9.34,35.25-17.39,54.57q-1.87,4.51-3.82,9.22c-15.95,38.9-33.06,89.49-23.69,135.71,10.44,51.47,56.4,93.1,104.63,94.77a87.1,87.1,0,0,0,16.86-1.07c29.15-4.65,55.32-22.67,80.63-40.1,12.8-8.81,24.88-17.14,37.32-23.84,18.42-10,33.76-14.73,47.28-18.94a241.07,241.07,0,0,0,23.63-8.25c11.28-4.83,23.1-11.61,36.16-20.75,16-11.17,34-26.29,52.21-43.72,8.34-8,16.77-16.41,24.92-24.55,13.38-13.37,26-26,38-36.6,2.16-1.91,4.24-3.73,6.23-5.48,7.37-6.46,13.74-12,18.31-16.68,6.57-6.66,9.95-11.27,10.66-14.52s-1.9-4.76-6.28-6.85a39.22,39.22,0,0,1-3.65-1.89c-2.11-1.28-4.94-3.39-5.18-6.83-.36-5,5-11.9,16.77-21.58,17.88-14.75,53.67-32.09,91.56-50.44l16.91-8.2c44.23-21.59,83.18-45.79,101.64-63.17,12.25-11.54,17.65-16.8,22-21,4.09-4,7.33-7.15,14.62-13.9,7.6-7,19.16-16,31.7-24.71A371.83,371.83,0,0,1,1305.92,713c14.56-4.4,29.76-8,44.46-11.57,26-6.22,52.79-12.66,77.43-23.48A183.38,183.38,0,0,0,1497.44,624c19.2-24.58,29.74-52.13,30.48-79.65a107.77,107.77,0,0,0-5.17-36.17c-8.43-26.11-26.58-49.17-52.49-66.68a167.81,167.81,0,0,0-83.11-28.24c-50.27-2.87-104.9,13.41-167,49.75-8.31,4.87-16.71,10-24.82,15l-6.09,3.73c-34.16,20.93-70.88,41.75-111.06,46.37a138.85,138.85,0,0,1-88.72-19.65,130.19,130.19,0,0,1-31.08-26.84c-27.07-32.27-39-79.75-31.1-123.91,3.33-18.68,9.9-36.2,16.24-53.15l1.89-5.05a312.83,312.83,0,0,0,9.8-30.25c4.25-16.43,5.7-33,4.16-48-1.8-17.68-7.6-32.47-17.22-43.95-11.39-13.67-38.56-35.33-92.58-26.79-106,16.74-181.13,90.11-234.74,152.16-4.74,5.49-9.65,11.3-14.58,17.27-16,19.32-32.72,33-48.44,39.58-18.61,7.78-35.65,5.87-50.65-5.67-6.31-4.86-11.64-12.54-17.3-20.68C473.07,317.64,462,301.68,442.66,301.68Z"/><path d="M531.73,1222.59c-1.78,0-3.56,0-5.34-.16-48.35-3-93.63-45.75-103.09-97.44-3.66-20-2.76-42.25,2.76-68,4.93-23,12.78-45.25,19.75-64.28l1.31-3.58c7.62-20.73,14.19-38.64,15.46-57.9.75-11.39-.05-40.06-23.65-60.13C418.46,853.68,390.31,851.3,363.1,849c-10.28-.87-20.91-1.77-30.8-3.49a151.73,151.73,0,0,1-34-10.14c-31.22-13.57-59.25-39-78.9-71.65C194.88,723,181.3,676.42,182.18,636c.49-22.35,4.24-39,12.19-54,6.2-11.69,19.34-27.57,46.7-36.84,10.49-3.56,21.71-5.48,33.58-7.52,7.94-1.36,16.16-2.77,24.33-4.73,20-4.79,35-12.56,47.34-24.44,24.73-23.9,32.5-65.13,39.36-101.49l0-.17c6.7-35,18.79-82.85,46.26-95.1l.29.66-.29-.66c29.2-13,43.53,5.47,56.17,21.78,5.29,6.83,10.28,13.27,16,17.14,34.59,23.36,71.75-12,90.83-35.12,4.7-5.7,9.36-11.23,13.86-16.44,34.76-40.22,67.68-70.7,100.63-93.16,40.14-27.37,80.74-43.45,124.13-49.17,52.2-6.89,78.86,15.19,90.1,29,9.38,11.41,15.18,26,17.25,43.34,1.74,14.56.74,30.8-2.89,47-2.47,11.08-5.82,21.66-8.46,29.64l-1.51,4.56c-5.55,16.6-11.28,33.77-14,51.93-6.34,42.69,5.8,88.12,31.68,118.57a124.84,124.84,0,0,0,29.93,25.57,134.4,134.4,0,0,0,85.18,18.57c39.08-4.46,74.45-24.28,107.34-44.19l7-4.22c7.55-4.59,15.36-9.33,23.1-13.83,61.75-35.93,113.4-51.54,162.52-49.1,60.75,3,116.67,41.83,133,92.25a104,104,0,0,1,5,35.52c-.87,26.93-11.46,53.74-30.63,77.54a179.34,179.34,0,0,1-68.77,51.6c-23,9.73-47.85,15.64-71.89,21.35-16.37,3.89-33.29,7.91-49.36,13.09-48.43,15.74-81.71,40.87-97.24,54.46-12.07,10.52-21.59,20.84-26.12,28.32a43.37,43.37,0,0,0-5.83,14.16c-1.46,5.89-3,12-15,27.44-15.53,19.93-53.53,46.56-96.81,67.86-17.59,8.65-35.88,17-52,24.32-24.06,10.94-44.84,20.39-57.84,28.27-18.27,11-20.08,14.07-20.25,14.67a3.27,3.27,0,0,0,1.32,0c.45-.07,1-.17,1.49-.27,2.93-.54,4.62-.8,5.15.21s-.51,1.82-.92,2.23c-1.63,1.61-5.67,4.76-13.52,10.52-1.85,1.36-3.92,2.84-6.17,4.46-5.52,4-12.4,8.9-20,14.85-17.34,13.54-35.88,32.31-53.81,50.46q-4.63,4.7-9.23,9.33c-18.13,18.24-35.28,34.15-49.58,46-12.44,10.3-23.42,18.18-33.55,24.07-8.41,4.89-17,8.71-26.12,12.75-11.67,5.18-24.89,11-40.8,20.52-9.93,5.89-19.78,12.66-30.2,19.83-27.46,18.89-55.86,38.42-87.68,42.55A89.11,89.11,0,0,1,531.73,1222.59ZM450.49,308.67c-5.26,0-11.17,1.3-17.94,4.32-26.86,12-38.8,59.42-45.44,94.06l0,.16c-6.9,36.58-14.71,78-39.77,102.26-12.48,12.06-27.73,19.95-48,24.8-8.21,2-16.45,3.39-24.42,4.75-11.81,2-23,3.94-33.36,7.46-14.86,5-34.88,15.4-45.9,36.16-7.83,14.77-11.54,31.22-12,53.35-.87,40.19,12.63,86.48,37,127,19.51,32.39,47.3,57.63,78.25,71.08a150.35,150.35,0,0,0,33.64,10c9.83,1.71,20.43,2.61,30.68,3.48,27.44,2.32,55.81,4.73,76.64,22.45C464,890.51,464.77,919.73,464,931.34c-1.28,19.46-7.89,37.45-15.54,58.3l-1.31,3.57c-28.63,78.15-26.6,108.87-22.45,131.53,9.34,51.06,54,93.35,101.77,96.26a86.58,86.58,0,0,0,16.73-.6c31.48-4.09,59.73-23.52,87.06-42.31,10.44-7.18,20.31-14,30.28-19.88,16-9.51,29.24-15.4,41-20.59,9.07-4,17.64-7.83,26-12.69,10.07-5.85,21-13.68,33.36-23.93,14.26-11.83,31.37-27.7,49.47-45.91q4.61-4.62,9.23-9.33c18-18.18,36.53-37,54-50.57,7.65-6,14.54-10.92,20.08-14.9,2.24-1.61,4.3-3.08,6.15-4.44,7.79-5.72,11.78-8.83,13.36-10.39.21-.2.34-.36.44-.47a21.47,21.47,0,0,0-3.4.46c-.54.1-1.07.2-1.53.27-.61.1-2.46.39-2.91-.84-.31-.87-1.15-3.18,20.89-16.44,13.06-7.91,33.87-17.38,58-28.35,16.13-7.33,34.41-15.65,52-24.29,42.44-20.89,81.14-48,96.31-67.46,11.86-15.21,13.32-21.16,14.74-26.9a45.06,45.06,0,0,1,6-14.57c4.61-7.59,14.23-18,26.41-28.65,15.61-13.65,49.06-38.92,97.74-54.74,16.12-5.2,33.07-9.23,49.47-13.12,24-5.7,48.78-11.6,71.66-21.27a177.94,177.94,0,0,0,68.22-51.19c19-23.55,29.45-50.07,30.31-76.69a102.4,102.4,0,0,0-4.92-35c-16.13-49.88-71.51-88.26-131.69-91.27-48.85-2.42-100.23,13.13-161.73,48.92-7.73,4.49-15.53,9.23-23.08,13.81l-7,4.22c-33,20-68.55,39.9-107.92,44.39A135.79,135.79,0,0,1,975,507.48a126.41,126.41,0,0,1-30.27-25.87c-26.14-30.75-38.4-76.62-32-119.7,2.72-18.28,8.47-35.51,14-52.18l1.52-4.55c2.63-7.95,6-18.48,8.41-29.5,3.82-17,10.08-59.7-14.06-89.1-11.06-13.54-37.3-35.25-88.82-28.45-43.16,5.69-83.55,21.69-123.5,48.93C677.43,229.45,644.6,259.85,609.92,300c-4.49,5.19-9.15,10.72-13.84,16.41-19.38,23.52-57.21,59.39-92.73,35.4-5.92-4-11-10.54-16.34-17.45C477.19,321.67,467.12,308.67,450.49,308.67Z"/><path d="M529.09,1208.15c-2.59,0-5.19-.12-7.77-.34-23.59-2.08-46.87-13.54-65.54-32.27-18.35-18.4-30.65-42.09-34.65-66.69-6.68-41.13,7.25-84.44,19.54-122.65l1.72-5.36c7.31-22.82,12.48-40.45,12.42-59.51-.05-13.38-3.44-38.54-25.61-56.71-19.84-16.27-46.53-19.27-72.34-22.18-10.15-1.14-20.65-2.32-30.4-4.3A147.58,147.58,0,0,1,294,827.48c-29.81-13.78-56.11-39.06-74.06-71.19-22.45-40.14-33.72-86.51-30.14-124,2-21,7.14-36.62,16.68-50.65,9.9-14.58,26.55-25.67,48.12-32.07,9.26-2.74,19-4.38,29.3-6.11,8.93-1.51,18.17-3.06,27.38-5.42,18.74-4.81,33.66-13,45.6-25.06,23.77-24,31.59-64.17,38.49-99.61,3.05-15.37,8-38,15.48-56.66,7.86-19.52,17.12-31.74,28.31-37.36l.32.64-.32-.64c26.61-13.36,40.14,1.83,52.08,15.23,5,5.6,9.7,10.89,15.06,13.93,32.32,18.38,66.84-15,84.54-36.55,4.42-5.39,8.83-10.63,13.12-15.59,71.17-82.33,139.15-124.28,213.92-132,49.68-5.15,75.4,17,86.31,30.65,16.36,20.34,22,52.2,15.36,87.41-2,10.85-4.83,21.13-7.06,28.88l-1.17,4c-4.75,16.34-9.67,33.24-11.74,51-4.92,42.26,7.26,85,32.57,114.41a121.86,121.86,0,0,0,29.12,24.59c24.22,14.7,53.54,21,82.56,17.7,38.28-4.33,73.86-24.06,104.2-42.21,2.62-1.56,5.23-3.14,7.85-4.71,7-4.19,14.2-8.52,21.34-12.65,60.3-34.87,110.26-50.2,157.24-48.26a157.06,157.06,0,0,1,79,25.82c24.78,16.42,42.09,38.12,50.07,62.78a98.73,98.73,0,0,1,4.75,34.39c-1,26-11.53,51.82-30.48,74.58a174.26,174.26,0,0,1-67.37,48.86c-21.44,8.71-44.51,14.11-66.82,19.33-17.83,4.16-36.26,8.47-53.62,14.43-51,17.64-81.87,47.52-92.79,59.55s-18.58,23.77-20.74,32c-2,7.5-.73,12,.58,16.67,2,7,4,14.29-5.61,31.65-12.21,22.12-49,51.18-91.62,72.32-30.75,15.26-63.46,27.92-87.35,37.16-9.45,3.66-17.61,6.81-24.16,9.54-20.64,8.51-24.79,8-26.09,6.65-.65-.68-.67-1.67-.07-2.94.21-.45.47-.94.74-1.45.8-1.53,2-3.83,1.5-4.66-.25-.4-1-.45-1.62-.46-1.23,0-5.21.63-15.73,6a237.8,237.8,0,0,0-27.76,16.42c-20.76,14.26-41.73,35.79-63.16,58.46-20.48,21.66-34.91,36.5-46.78,48.13-12.09,11.83-21.84,20.49-30.69,27.25-9.87,7.54-20,13.42-31.63,20.24-9.08,5.3-19.38,11.3-31.41,19.17-7.05,4.58-14.1,9.5-21.56,14.7-30,20.89-60.94,42.48-95.8,46A89.4,89.4,0,0,1,529.09,1208.15ZM458.37,315.54c-5.37,0-11.48,1.49-18.6,5.06-24.22,12.16-35.72,56.1-43,93C389.81,449.26,382,489.66,357.87,514c-12.13,12.24-27.26,20.56-46.26,25.43-9.27,2.38-18.54,3.94-27.5,5.45-10.27,1.72-20,3.35-29.13,6.07-21.26,6.31-37.63,17.2-47.35,31.5-9.39,13.82-14.46,29.24-16.44,50-3.54,37.24,7.66,83.29,30,123.2C239,787.46,265,812.53,294.57,826.19a146.42,146.42,0,0,0,32.17,10.55c9.69,2,20.16,3.14,30.28,4.28,26,2.93,52.92,6,73.09,22.49,22.62,18.55,26.08,44.18,26.13,57.81.06,19.28-5.14,37-12.49,60L442,986.63c-12.24,38.06-26.12,81.2-19.49,122,3.95,24.31,16.11,47.72,34.25,65.91,18.43,18.49,41.4,29.81,64.66,31.86a88.72,88.72,0,0,0,16.62-.13c34.49-3.45,65.31-24.94,95.12-45.72,7.48-5.21,14.53-10.13,21.6-14.73,12.06-7.88,22.37-13.9,31.47-19.21,11.64-6.79,21.69-12.65,31.49-20.14,8.8-6.72,18.51-15.34,30.55-27.13,11.85-11.62,26.27-26.45,46.74-48.09,21.49-22.73,42.51-44.32,63.39-58.66a239.88,239.88,0,0,1,27.93-16.52c7.71-3.89,13.51-6.06,16.34-6.1a3,3,0,0,1,2.87,1.15c.93,1.52-.33,3.93-1.45,6.06-.26.49-.51,1-.71,1.4s-.46,1.06-.2,1.34c.64.67,4.31,1.34,24.51-7,6.57-2.74,14.73-5.89,24.19-9.55,23.86-9.23,56.55-21.88,87.23-37.11,41.69-20.69,79.11-50.19,91-71.73,9.3-16.85,7.45-23.52,5.49-30.58-1.3-4.69-2.64-9.54-.58-17.41,2.21-8.47,9.89-20.36,21.06-32.62,11-12.11,42.11-42.19,93.39-59.94,17.43-6,35.89-10.3,53.75-14.48,22.26-5.2,45.28-10.59,66.62-19.25a172.79,172.79,0,0,0,66.8-48.45c18.75-22.52,29.17-48,30.15-73.73a97.35,97.35,0,0,0-4.68-33.89c-7.88-24.35-25-45.79-49.5-62a155.74,155.74,0,0,0-78.27-25.6c-46.7-1.92-96.41,13.35-156.47,48.08-7.13,4.12-14.34,8.45-21.31,12.64l-7.86,4.71c-30.47,18.22-66.21,38-104.77,42.4-29.33,3.32-59-3-83.46-17.89A123.51,123.51,0,0,1,931,481.62c-25.56-29.67-37.86-72.85-32.9-115.5,2.08-17.89,7-34.85,11.79-51.25l1.16-4c2.22-7.71,5-17.95,7-28.75,3.08-16.46,7.79-57.81-15.07-86.25-10.73-13.43-36-35.2-85.06-30.12-74.38,7.7-142.06,49.5-213,131.54-4.28,4.94-8.68,10.18-13.1,15.56C569,340.75,546.25,355.19,526,355.19a40.72,40.72,0,0,1-20.45-5.46c-5.56-3.17-10.35-8.54-15.42-14.23C481.36,325.64,472.35,315.54,458.37,315.54Z"/><path d="M526.53,1193.77a90.39,90.39,0,0,1-10.27-.58c-23.41-2.7-46.26-14.64-64.36-33.61-17.78-18.64-29.48-42.39-32.94-66.87-5-35.73,5.8-73.72,15.37-107.24,1.63-5.72,3.17-11.13,4.63-16.5,6.21-22.79,9.52-39.51,8.08-57.55-1-12.59-5.93-36.25-27.56-53.29C400.3,843,375.09,839.43,350.71,836c-10-1.43-20.45-2.91-30.09-5.19a145.37,145.37,0,0,1-31-11.16c-28.45-14.1-53-39.22-69.21-70.74-20.57-40-29.19-85-23-120.3,3.51-20.12,9.84-34.27,21.17-47.32,10.9-12.55,27.57-21.73,49.55-27.3,7.9-2,16.09-3.31,24.75-4.71,10-1.61,20.35-3.27,30.7-6.11,17.77-4.87,32.12-13.27,43.86-25.67,22.82-24.09,31-64.83,37.59-97.57,8.34-40.8,19.11-80.3,41.31-92.92,24-13.66,36.73-1.8,47.95,8.66,4.69,4.37,9.12,8.5,14.13,10.73,30.06,13.41,61.94-18.05,78.27-38,4.17-5.1,8.33-10.05,12.37-14.72,30.8-35.61,60.64-62.55,91.23-82.34,36.12-23.37,73.75-36.62,111.86-39.39,35-2.54,64.26,8.94,82.53,32.34,21.15,26.92,19.33,64.5,16.36,84.5-1.22,8.29-3,17-5.68,28.12l-.85,3.43c-4,16.1-8,32.74-9.48,50.14-3.39,41.19,9.12,82.4,33.46,110.24a118.72,118.72,0,0,0,28.31,23.62c23.39,14,51.78,20,80,16.82,37.48-4.21,71.81-23,101-40.23q4.49-2.64,9-5.31c6.33-3.75,12.88-7.64,19.35-11.35,40.18-23.09,93.75-49.31,152-47.43a150.94,150.94,0,0,1,76.59,24.5c23.74,15.55,41,37,48.59,60.44a93.84,93.84,0,0,1,4.5,33.27c-1.11,25.12-11.6,49.89-30.33,71.61-17.14,19.88-40.56,36.26-66,46.13-20.06,7.8-41.55,12.72-62.33,17.47-19.1,4.37-38.85,8.89-57.3,15.62-35.68,13.12-68.71,37.28-88.36,64.63-9.8,13.59-15.41,26.62-15.4,35.74,0,8.62,3.58,14.1,7,19.39,5.29,8.09,10.76,16.46,3.76,35.62C1120,865.39,1084.46,897,1042.41,918c-43.39,21.74-89.54,34.89-113.19,40.79-14.53,3.59-24,3.62-28.94.11a9.52,9.52,0,0,1-3.95-7.35c-.13-1.35-.13-2.78-.14-4.18,0-4.79,0-9.31-4.64-11.36-3.41-1.52-10-.92-18.12,1.63a139.88,139.88,0,0,0-29.32,13.54c-22.82,13.7-44.79,36.57-63.28,57.13-15.52,17.26-30.27,34.37-42.13,48.11l-1.86,2.15c-10.5,12.18-19.25,22-27.82,30.43-13.2,13-27,22.74-46.12,36.28-4.08,2.89-8.41,6-13,9.27-3.44,2.45-6.92,5-10.46,7.53-31.57,22.84-67.36,48.71-106.38,51.44C530.87,1193.7,528.7,1193.77,526.53,1193.77ZM446.65,327.59l.35.62c-21.7,12.34-32.35,51.49-40.62,92-6.61,32.91-14.85,73.87-37.95,98.27C356.5,531,341.94,539.56,323.9,544.51c-10.42,2.86-20.8,4.53-30.84,6.15-8.63,1.38-16.79,2.7-24.63,4.68-21.69,5.49-38.12,14.52-48.82,26.85C208.46,595,202.23,609,198.77,628.82c-6.1,35,2.46,79.64,22.9,119.4,16.05,31.25,40.4,56.14,68.57,70.11a143.65,143.65,0,0,0,30.71,11c9.58,2.26,19.94,3.74,30,5.16,24.57,3.51,50,7.13,69.45,22.46,22.06,17.38,27.07,41.48,28.1,54.3,1.47,18.25-1.87,35.11-8.12,58.05-1.46,5.38-3,10.79-4.64,16.51-9.53,33.39-20.33,71.22-15.32,106.65,3.41,24.19,15,47.66,32.56,66.09,17.86,18.73,40.41,30.51,63.48,33.17a89.24,89.24,0,0,0,16.5.34c38.62-2.69,74.22-28.44,105.64-51.17,3.54-2.56,7-5.08,10.47-7.53,4.63-3.32,9-6.39,13-9.28,19.06-13.49,32.83-23.25,45.95-36.13,8.53-8.38,17.26-18.19,27.74-30.34l1.86-2.15c11.86-13.75,26.62-30.86,42.15-48.13,18.56-20.65,40.63-43.61,63.6-57.41A141.56,141.56,0,0,1,873,936.29c8.56-2.69,15.35-3.25,19.13-1.57,5.48,2.43,5.49,7.87,5.49,12.67,0,1.42,0,2.77.13,4.05a8.21,8.21,0,0,0,3.36,6.32c4.52,3.21,13.86,3.09,27.77-.34,23.59-5.89,69.62-19,112.89-40.67,41.75-20.91,77-52.16,85.7-76,6.76-18.49,1.72-26.19-3.6-34.35-3.58-5.47-7.28-11.13-7.28-20.17,0-9.41,5.7-22.75,15.67-36.58,19.81-27.57,53.09-51.92,89-65.14,18.53-6.76,38.33-11.29,57.47-15.66,20.73-4.75,42.17-9.65,62.13-17.41,45.7-17.76,92.92-60.67,95.38-116.48a92.32,92.32,0,0,0-4.43-32.75c-7.5-23.13-24.55-44.33-48-59.7A149.5,149.5,0,0,0,1308,418.24c-57.82-1.89-111.19,24.25-151.2,47.24-6.46,3.71-13,7.59-19.33,11.34q-4.48,2.67-9,5.31c-29.36,17.33-63.85,36.18-101.61,40.42-28.48,3.2-57.19-2.84-80.84-17a119.83,119.83,0,0,1-28.66-23.9c-24.59-28.13-37.23-69.73-33.8-111.3,1.44-17.51,5.55-34.21,9.52-50.36l.84-3.43c2.7-11.11,4.45-19.74,5.66-28,2.93-19.78,4.75-56.91-16.08-83.41-18-23-46.83-34.29-81.3-31.79-37.86,2.75-75.27,15.93-111.18,39.16-30.48,19.72-60.22,46.57-90.93,82.07-4,4.66-8.18,9.61-12.34,14.7-28.64,35-57,48.61-80,38.39-5.22-2.33-9.73-6.54-14.51-11-11.4-10.62-23.17-21.6-46.27-8.46Z"/><path d="M524,1179.48a92.1,92.1,0,0,1-12.85-.91c-23.22-3.33-45.65-15.74-63.17-34.94-17.23-18.89-28.32-42.7-31.23-67.06-3.71-31.11,4.49-62.95,12.42-93.73,2.31-9,4.49-17.43,6.33-25.73,5.26-23.71,6.34-39.81,3.73-55.6-3.36-20.33-13.84-38-29.52-49.87-18.45-13.92-42.14-18.06-65.05-22.07-10-1.76-20.35-3.57-29.92-6.17a142.63,142.63,0,0,1-29.54-11.67c-27.08-14.42-49.93-39.38-64.35-70.28C202.3,701.67,196.35,658.09,205,624.88c5-19.16,12.65-32.32,25.67-44,11.64-10.43,28.31-17.8,51-22.52,6.42-1.34,13-2.31,19.91-3.34,11.17-1.66,22.71-3.38,34.3-6.77A88.88,88.88,0,0,0,377.92,522c21.89-24.23,30.1-63.77,36.7-95.53,7.88-37.36,18-78.34,38.83-91.84l.39.6-.39-.6c21.42-13.9,33.3-5.4,43.77,2.09,4.4,3.15,8.55,6.11,13.22,7.54,20.61,6.26,46.19-7.74,72-39.42,3.89-4.79,7.81-9.46,11.63-13.87,31.47-36.38,59-61.77,86.57-79.93,35.85-23.59,70.44-33.89,105.76-31.49,25.9,1.76,58.25,7.22,78.66,34,19.93,26,19.43,62.28,17.37,81.59-.86,8.13-2.19,16.57-4.3,27.36l-.56,2.81c-3.14,15.86-6.39,32.26-7.18,49.3-1.86,40.12,11,79.78,34.34,106.09a115.37,115.37,0,0,0,27.51,22.63c22.86,13.52,49.6,19,77.32,15.95,34.95-3.89,67.71-20.68,97.91-38.25q5-2.91,10-5.86c5.7-3.34,11.6-6.79,17.42-10.11,26.82-15.3,49.34-25.94,70.87-33.46,26.9-9.41,51.69-13.71,75.8-13.13a145,145,0,0,1,74.18,23.17c23,14.92,39.77,35.56,47.1,58.12a88.93,88.93,0,0,1,4.25,32.14c-1.23,24.22-11.67,48-30.19,68.64-16.83,18.8-39.76,34.21-64.54,43.4-18.81,7-38.88,11.44-58.28,15.75-20.24,4.51-41.17,9.16-60.54,16.66-35.88,14-67.26,40.06-83.93,69.71-8.5,15.07-12.18,29.47-10.11,39.5,2,9.77,7.93,16.08,13.64,22.19,8.55,9.14,17.4,18.59,13,39.48-5.47,26.08-39.6,60.26-81.17,81.27-42.25,21.34-88.28,32.12-114.87,34.86-22.54,2.27-35.48-3.76-39.55-18.42-.59-2.12-1-4.35-1.45-6.52-1.37-7-2.66-13.54-8.62-17.76-4.4-3.12-11.75-4.08-20.7-2.7-9.61,1.48-20.29,5.17-30.88,10.68-19.32,10-39.46,27.78-63.4,55.81-17.39,20.37-32,39.74-41.19,52.39q-2.13,2.92-4.19,5.78c-7.25,10-14.09,19.45-20.79,27.82-15.23,19-31.17,32.85-55.27,51.7-36,28.07-74.68,55.62-116.31,57.26C526.57,1179.45,525.31,1179.48,524,1179.48Zm-49.4-850.91c-5.69,0-12.3,2-20.41,7.24C433.89,349,423.84,389.67,416,426.74c-6.63,31.93-14.89,71.68-37,96.2a90.17,90.17,0,0,1-42.78,26.69c-11.68,3.42-23.28,5.14-34.49,6.81-6.92,1-13.45,2-19.83,3.33-22.4,4.67-38.85,11.92-50.3,22.18-12.79,11.48-20.34,24.42-25.23,43.29-8.53,32.9-2.61,76.11,15.83,115.6,14.29,30.63,36.93,55.35,63.74,69.63A141,141,0,0,0,315.15,822c9.51,2.59,19.82,4.39,29.8,6.14,23.07,4,46.93,8.21,65.66,22.34,16,12,26.65,30.08,30.07,50.78,2.65,16,1.56,32.24-3.74,56.14-1.85,8.32-4,16.8-6.34,25.78-7.9,30.65-16.06,62.35-12.39,93.2,2.87,24.06,13.83,47.6,30.87,66.27,17.29,19,39.42,31.2,62.31,34.48a89.82,89.82,0,0,0,16.38.82c41.21-1.62,79.65-29,115.49-57,24-18.77,39.89-32.54,55-51.47,6.67-8.34,13.51-17.77,20.74-27.76l4.19-5.78c9.21-12.68,23.84-32.07,41.27-52.48,24-28.18,44.33-46,63.82-56.15,10.73-5.58,21.56-9.33,31.32-10.83,9.32-1.42,17-.38,21.75,3,6.42,4.55,7.83,11.72,9.19,18.66.42,2.13.85,4.34,1.43,6.41,5.13,18.49,24.16,18.77,38,17.38,26.46-2.73,72.29-13.47,114.36-34.72,41.21-20.82,75-54.59,80.42-80.29,4.22-20.15-4-28.92-12.66-38.21-5.85-6.25-11.89-12.71-14-22.87-2.17-10.52,1.47-24.9,10.26-40.49,16.83-29.93,48.48-56.23,84.66-70.34,19.47-7.54,40.46-12.21,60.75-16.72,19.36-4.31,39.37-8.76,58.09-15.7,44.74-16.59,91.09-57.27,93.8-110.78a87.69,87.69,0,0,0-4.18-31.62c-7.23-22.25-23.75-42.62-46.52-57.36a143.48,143.48,0,0,0-73.43-22.94c-55-1.3-106.87,24.11-145.93,46.4-5.82,3.32-11.71,6.77-17.41,10.11l-10,5.86c-30.33,17.64-63.26,34.51-98.47,38.44-28,3.12-55.08-2.47-78.21-16.15a116.9,116.9,0,0,1-27.85-22.91c-23.6-26.58-36.58-66.62-34.7-107.1.79-17.15,4-33.61,7.21-49.52l.55-2.8c2.11-10.75,3.43-19.15,4.28-27.24,2.05-19.1,2.55-55-17.08-80.57-20.06-26.35-52-31.72-77.61-33.46-35-2.37-69.31,7.84-104.88,31.25-27.48,18.09-54.9,43.4-86.28,79.67-3.81,4.41-7.72,9.07-11.6,13.84-22.09,27.08-44.1,41.41-63.16,41.41A35.83,35.83,0,0,1,510,345.61c-4.91-1.5-9.15-4.53-13.64-7.74C490,333.27,483.4,328.57,474.64,328.57Z"/><path d="M521.64,1165.26a92.72,92.72,0,0,1-15.52-1.31c-47.26-8.12-86.6-52.62-91.5-103.52-2.6-27.11,4-54.9,10.33-81.79,2.75-11.66,5.36-22.68,7.17-33.4,3.69-21.82,3.51-37.86-.6-53.63A82.12,82.12,0,0,0,400,845.15c-17.66-12.71-39.77-17.36-61.14-21.86-10-2.1-20.38-4.29-29.94-7.26a139.71,139.71,0,0,1-28.06-12.18C255.16,789.1,234,764.3,221.37,734c-16.49-39.42-19.78-81.6-8.8-112.84,6.46-18.38,15.48-30.54,30.17-40.64,12.16-8.37,28.31-13.85,52.36-17.76,4.8-.78,9.62-1.4,14.73-2.07,12.44-1.61,25.3-3.27,38.24-7.33,15.91-5,29.12-13.78,40.39-26.89,19.36-22.53,28-57.07,35.8-93.49,7.37-33.83,16.54-75.94,36.34-90.74l.43.58-.43-.58c22.73-17,34.74-10,46.36-3.28,1.87,1.09,3.81,2.21,5.76,3.21,18.86,9.71,46.07-16.9,65.58-40.93,3.62-4.47,7.28-8.85,10.89-13C618,255,644.77,230.72,671.19,214c33.6-21.3,67.08-30.33,99.5-26.84,24.49,2.64,55.12,9.08,74.86,35.7,17.79,23.83,19.81,55.94,18.37,78.68-.48,7.85-1.41,16.3-2.92,26.6l-.31,2.11c-2.31,15.65-4.71,31.84-4.84,48.54-.31,39.64,12.53,76.79,35.23,101.93a112.15,112.15,0,0,0,26.7,21.65c22,12.83,47.84,18,74.71,15.09,34.3-3.79,67.15-20.47,94.76-36.28q5.67-3.24,11.33-6.52c5-2.89,10.15-5.87,15.25-8.76,40.66-23,89.22-46.46,141.39-45.75,52.76.75,103.23,34.13,117.37,77.64a84.09,84.09,0,0,1,4,31c-3,51.84-48.95,90.76-93.17,106.34-17.67,6.23-36.43,10.26-54.58,14.16-21.27,4.57-43.27,9.3-63.43,17.58-42.4,17.5-68.87,50.11-79.52,74.79-7.26,16.78-9,32.15-4.8,43.29,4.07,10.92,12.33,18.07,20.31,25,11.77,10.19,23.94,20.74,22.2,43.3-2.16,27.91-34.8,64.77-75.93,85.74s-88.27,29.67-116.53,28.93c-24-.7-39.14-10.4-46.22-29.66-1.08-2.91-2-6-2.86-8.91-2.58-8.7-5.26-17.69-12.44-24-5.35-4.72-13.66-7.22-23.34-7.08-10.08.16-21.3,2.87-32.45,7.83-20.38,9.08-41.15,26.9-63.51,54.49a504.9,504.9,0,0,0-38.41,54.52c-3.23,5.32-6.31,10.53-9.3,15.56-4.43,7.48-8.62,14.55-12.82,21.21-13.79,21.85-28.19,38.07-51.37,57.85-43.59,37.09-81.46,55.26-115.79,55.56Zm-35.38-832.2c-6.68,0-14.56,2.69-24.8,10.35-19.38,14.47-28.49,56.29-35.8,89.9-7.86,36.59-16.54,71.33-36.12,94.11a88.4,88.4,0,0,1-41,27.33c-13.06,4.09-26,5.76-38.49,7.38-5.09.66-9.9,1.29-14.68,2.06-23.83,3.88-39.8,9.28-51.78,17.53-10.17,7-21.64,17.21-29.63,39.94-10.87,30.91-7.59,72.7,8.77,111.81,12.54,30,33.45,54.55,58.9,69.14a138.45,138.45,0,0,0,27.77,12c9.5,3,19.82,5.13,29.81,7.23,21.52,4.53,43.78,9.22,61.69,22.1a83.44,83.44,0,0,1,32,47.26c4.16,16,4.35,32.2.63,54.23-1.82,10.77-4.43,21.81-7.19,33.49-6.33,26.77-12.88,54.45-10.29,81.32,2.3,23.93,12.66,47.53,29.16,66.45,16.73,19.19,38.45,31.9,61.15,35.8a91.41,91.41,0,0,0,16.27,1.29c34-.3,71.55-18.36,114.87-55.22,23.06-19.68,37.38-35.81,51.09-57.52,4.19-6.65,8.37-13.71,12.8-21.17,3-5,6.08-10.26,9.31-15.58a505.5,505.5,0,0,1,38.52-54.68c22.5-27.77,43.45-45.73,64-54.89,11.32-5,22.74-7.79,33-8,10.05-.17,18.68,2.48,24.3,7.43,7.5,6.6,10.23,15.79,12.87,24.68.87,2.93,1.77,6,2.83,8.83,7,18.9,21.22,28,44.92,28.72,28.09.75,74.79-7.85,115.84-28.78,40.72-20.76,73-57.12,75.15-84.57,1.69-21.84-9.67-31.69-21.71-42.11-8.11-7-16.51-14.31-20.71-25.57-4.29-11.49-2.58-27.24,4.83-44.36,10.76-24.94,37.49-57.88,80.28-75.55,20.28-8.32,42.35-13.06,63.68-17.65,18.11-3.89,36.82-7.91,54.4-14.11,43.78-15.42,89.28-53.89,92.22-105.08a82.56,82.56,0,0,0-3.94-30.48c-14-42.95-63.85-75.91-116-76.65-51.77-.69-100.17,22.63-140.66,45.56-5.1,2.89-10.26,5.87-15.25,8.76q-5.65,3.27-11.33,6.52c-27.73,15.89-60.75,32.64-95.32,36.46-27.17,3-53.31-2.28-75.58-15.27a113.69,113.69,0,0,1-27-21.93c-22.94-25.4-35.91-62.91-35.6-102.9.13-16.8,2.53-33,4.86-48.74l.31-2.11c1.5-10.25,2.42-18.67,2.9-26.48,1.43-22.5-.56-54.25-18.09-77.74-19.41-26.18-49.67-32.52-73.86-35.13-32.09-3.46-65.26,5.5-98.59,26.63-26.29,16.66-53,40.87-81.68,74-3.6,4.16-7.25,8.52-10.86,13-19.84,24.44-47.63,51.44-67.34,41.31-2-1-3.94-2.16-5.83-3.25C500,336.59,493.91,333.06,486.26,333.06Z"/><path d="M519.71,1151.14l-2.26,0a93.94,93.94,0,0,1-16.39-1.78c-46.87-9.41-85-54.56-88.6-105-1.71-23.59,3.65-47.8,8.83-71.2,3.07-13.88,6-27,7.41-39.71,2.29-20.22.77-36.16-4.93-51.67a89.19,89.19,0,0,0-33.47-43.05c-16.78-11.46-37.22-16.54-57-21.46-10.13-2.52-20.6-5.13-30.23-8.54A138.74,138.74,0,0,1,276.51,796c-24.35-15.08-43.76-39.72-54.65-69.38-14.11-38.38-14.76-80.18-1.68-109.1,10.09-22.33,23.19-31.38,34.67-37.29,14.11-7.27,31.69-10.45,53.76-13,3-.35,6.09-.66,9.18-1,13.83-1.42,28.13-2.89,42.56-7.71,14.8-5,27.8-14.21,38.64-27.51,18.52-22.69,27.4-57.62,34.91-91.44l.47-2.12c8-35.72,16.33-72.67,33.38-87.52,15.15-13.19,24.4-11.65,33.34-10.15,4.4.74,8.56,1.43,13.3.27l.13,0,.13,0c18.94,2.43,42.8-21.67,59.47-42.32,3.38-4.2,6.8-8.29,10.15-12.16,59.15-68.3,116.58-98.84,170.68-90.8,33.73,5,56.31,16.9,71.06,37.38,9.2,12.69,20,36.13,19.37,75.76-.11,7.7-.6,15.92-1.53,25.85l-.12,1.31c-1.48,15.48-3,31.48-2.45,47.88,1.28,38.57,14.45,74.2,36.12,97.77a109,109,0,0,0,25.89,20.68c21.14,12.13,46.07,17,72.09,14.21,33.58-3.68,65.16-19.4,91.62-34.3q6.39-3.59,12.77-7.24t12.94-7.35c41.54-23.33,86.71-44.91,135.57-44.91h.53a133,133,0,0,1,69.36,20.52c21.67,13.65,37.34,32.64,44.12,53.47a79.11,79.11,0,0,1,3.75,29.88c-3.21,49.51-48.32,86.22-91.61,100.64-16.59,5.53-34.16,9.16-51.14,12.67-22.22,4.59-45.2,9.34-66.06,18.39-42.46,18.53-66.63,53.41-75.1,79.87-5.87,18.27-5.69,35,.5,47.13s16.77,20,27,27.78c15,11.27,30.44,22.92,31.32,47.11,1.09,30.12-29.29,68.9-70.68,90.19-41.92,21.57-89.56,27.08-118.19,23-25.56-3.71-42.87-17.09-52.9-40.9-1.58-3.73-3-7.64-4.33-11.41-3.84-10.69-7.81-21.76-16.17-30.12-6.3-6.32-15.53-10.39-26-11.47-10.63-1.1-22.4.62-34,5-21.25,8-42.66,25.87-63.62,53.18a366.21,366.21,0,0,0-35.63,56.64c-3.88,7.71-7.46,15.26-10.93,22.57-2.87,6.06-5.59,11.79-8.36,17.38-11,22.12-23.25,41.47-47.45,64C610.89,1117.52,567.45,1151.14,519.71,1151.14ZM468.22,350.46l.47.54c-16.69,14.54-24.94,51.25-32.92,86.76l-.48,2.11c-7.54,34-16.48,69.1-35.19,92-11,13.51-24.24,22.91-39.3,28-14.57,4.88-28.95,6.35-42.86,7.78-3.09.32-6.15.63-9.17,1-21.91,2.53-39.35,5.68-53.27,12.85-11.26,5.8-24.11,14.68-34,36.61-12.93,28.59-12.27,70,1.72,108,10.78,29.36,30,53.74,54.07,68.65a136.44,136.44,0,0,0,26.3,12.56c9.56,3.39,20,6,30.1,8.5,19.88,5,40.44,10.07,57.43,21.67a90.54,90.54,0,0,1,34,43.74c5.78,15.73,7.33,31.86,5,52.32-1.45,12.8-4.35,25.94-7.43,39.86-5.16,23.3-10.49,47.4-8.81,70.78,3.6,49.86,41.2,94.46,87.46,103.74a91.11,91.11,0,0,0,16.14,1.76c.74,0,1.49,0,2.23,0,47.26,0,90.36-33.38,112-53.49,24-22.38,36.24-41.61,47.15-63.59,2.77-5.58,5.48-11.3,8.35-17.35,3.47-7.32,7-14.88,10.94-22.6A368.68,368.68,0,0,1,734,935.81c21.13-27.52,42.75-45.57,64.25-53.64,11.84-4.45,23.83-6.2,34.69-5.08s20.31,5.34,26.85,11.89c8.58,8.59,12.6,19.8,16.49,30.65,1.35,3.75,2.75,7.64,4.3,11.33,9.83,23.32,26.77,36.42,51.8,40,28.39,4.07,75.69-1.41,117.33-22.83,19.65-10.11,37.62-24.77,50.6-41.29s19.81-33.38,19.3-47.58c-.85-23.51-15.37-34.44-30.75-46-10.4-7.83-21.15-15.92-27.46-28.27s-6.56-29.58-.58-48.21c8.56-26.76,33-62,75.89-80.75,21-9.11,44-13.88,66.34-18.48,16.94-3.5,34.46-7.12,51-12.62,42.83-14.27,87.47-50.54,90.64-99.38a78,78,0,0,0-3.69-29.35c-6.68-20.51-22.14-39.22-43.53-52.7a131.46,131.46,0,0,0-68.59-20.3h-.53c-48.54,0-93.5,21.49-134.86,44.73q-6.5,3.65-13,7.34c-4.25,2.43-8.51,4.86-12.76,7.25-26.59,15-58.34,30.77-92.17,34.47-26.33,2.87-51.56-2.1-73-14.39a110.27,110.27,0,0,1-26.23-20.95c-21.9-23.82-35.21-59.79-36.5-98.69-.55-16.49,1-32.54,2.45-48.06l.13-1.32c.92-9.89,1.41-18.06,1.52-25.73.36-21.66-2.66-52.23-19.1-74.9-14.51-20.15-36.79-31.85-70.11-36.81-53.59-8-110.58,22.42-169.39,90.33-3.34,3.86-6.74,7.93-10.11,12.11-16.09,19.93-38.85,43-57.92,43a22.44,22.44,0,0,1-2.72-.17c-5,1.19-9.43.44-13.75-.28-8.61-1.44-17.52-2.93-32.16,9.82Z"/><path d="M517.61,1137.11c-1.79,0-3.57,0-5.35-.14a95.68,95.68,0,0,1-16.27-2.26c-46.51-10.7-83.35-56.52-85.7-106.57-1-20.49,3.48-41.49,7.77-61.8,3.31-15.65,6.44-30.43,7.22-44.82,1-19.15-1.81-34.48-9.26-49.71a99.11,99.11,0,0,0-35.45-39.63c-15.75-10.17-34.39-15.58-52.41-20.81-10.37-3-21.1-6.13-30.91-10.09a138.45,138.45,0,0,1-25.1-13.19c-23-15.5-40.7-40-49.8-68.93-11.92-37.83-9.83-78.2,5.44-105.36C240,592.13,254.43,584.48,267,579.87c15.13-5.58,32.72-6.75,53.08-8.12l5.32-.35c15.35-1,31.23-2,47.26-7.77,13.94-5,26.36-14.44,36.91-28.11,17.7-22.94,26.5-56.75,34-89.41.58-2.47,1.15-5,1.73-7.45,7.49-32.55,15.24-66.2,29.64-81.07h0c12.68-13.09,21-14.56,29.08-16,4.12-.73,8-1.41,12.42-3.61l.24-.08c13.21-1.42,31.15-16.15,53.31-43.78,3.11-3.88,6.28-7.68,9.41-11.3,22.22-25.64,47.29-46.47,72.5-60.23,29.19-15.94,58.55-22.76,87.28-20.27a90.45,90.45,0,0,1,67.33,39.07c12.51,17.8,19.36,42.31,20.37,72.85.27,7.54.22,15.51-.14,25.08l0,.41c-.6,15.33-1.22,31.19,0,47.33,2.94,38.05,16.08,71.29,37,93.61a105.8,105.8,0,0,0,25.08,19.7c20.27,11.45,44.29,16.06,69.47,13.34,33.07-3.58,64.66-19.15,88.49-32.32,4.78-2.64,9.64-5.37,14.34-8,3.5-2,7-3.94,10.5-5.89,37.91-21.11,82.42-43.67,130.8-44.07,22.94-.18,46.72,6.64,66.95,19.19,21,13,36.12,31.19,42.64,51.15a74.59,74.59,0,0,1,3.5,28.75c-3.44,47.17-47.7,81.67-90,94.94-15.59,4.89-32,8.13-47.92,11.27-23.11,4.56-47,9.27-68.47,19.11-42.47,19.56-64.37,56.72-70.7,85-4.45,19.77-2.38,37.87,5.81,51s21.25,22,33.83,30.59c18.13,12.34,36.89,25.1,40.37,50.9,4.28,31.79-24.45,73.36-65.42,94.63-45,23.35-92.66,23.76-119.83,17s-46.72-23.85-59.61-52.16c-2.12-4.63-4.06-9.46-5.93-14.14-5.05-12.61-10.28-25.65-19.74-36a53.75,53.75,0,0,0-28.62-15.89,71.7,71.7,0,0,0-35.64,2.16c-22.31,6.91-43.75,24.36-63.73,51.85A291.73,291.73,0,0,0,687,971.57c-3.85,9.37-7.3,18.66-10.63,27.64-2,5.36-3.87,10.43-5.82,15.48-9.89,25.64-21.08,47.38-43.53,70.14C594.34,1117.86,553.86,1137.11,517.61,1137.11Zm-.69-797.77A43.22,43.22,0,0,1,504.23,343c-7.84,1.38-16,2.8-28.3,15.56-14.12,14.59-21.83,48-29.28,80.4-.57,2.49-1.15,5-1.72,7.46-7.54,32.81-16.39,66.78-34.27,89.95C399.94,550.28,387.31,559.9,373.1,565c-16.22,5.8-32.2,6.84-47.65,7.85l-5.32.35c-20.25,1.35-37.74,2.52-52.67,8-12.29,4.53-26.46,12-38.42,33.29-15.09,26.83-17.13,66.77-5.33,104.23,9,28.64,26.5,52.85,49.23,68.17A137.54,137.54,0,0,0,297.78,800c9.75,3.93,20.44,7,30.78,10,18.12,5.27,36.86,10.71,52.79,21a100.58,100.58,0,0,1,36,40.2c7.56,15.46,10.46,31,9.4,50.42-.79,14.49-3.93,29.33-7.25,45-4.27,20.22-8.7,41.12-7.74,61.43,2.32,49.44,38.69,94.68,84.59,105.24a93.87,93.87,0,0,0,16,2.23c1.74.1,3.51.14,5.28.14,35.87,0,76-19.1,108.36-51.86,22.27-22.58,33.39-44.17,43.22-69.65,1.94-5,3.82-10.1,5.81-15.46,3.34-9,6.79-18.29,10.65-27.69a293.13,293.13,0,0,1,33-59.07c20.17-27.75,41.86-45.37,64.47-52.38a73.12,73.12,0,0,1,36.35-2.19,55.3,55.3,0,0,1,29.39,16.32c9.64,10.52,14.91,23.68,20,36.41,1.86,4.66,3.79,9.48,5.9,14.08,12.7,27.89,31.88,44.68,58.65,51.36,26.94,6.68,74.22,6.26,118.84-16.91,40.46-21,68.86-61.94,64.65-93.17-3.39-25.17-21.06-37.18-39.76-49.91-12.69-8.63-25.82-17.57-34.23-31s-10.53-31.91-6-52c8.17-36.47,35.57-69.4,71.5-86,21.62-9.91,45.6-14.64,68.79-19.22,15.86-3.13,32.26-6.36,47.77-11.22,41.89-13.13,85.67-47.18,89.06-93.69a73.35,73.35,0,0,0-3.44-28.2c-6.41-19.64-21.34-37.53-42-50.37a125.47,125.47,0,0,0-66.17-19c-48.06.39-92.37,22.86-130.13,43.89-3.5,2-7,3.92-10.49,5.88-4.7,2.65-9.56,5.38-14.35,8-24,13.23-55.7,28.88-89,32.49-25.48,2.75-49.8-1.92-70.33-13.51a107.35,107.35,0,0,1-25.42-20c-21.15-22.55-34.43-56.11-37.4-94.48-1.25-16.22-.63-32.12,0-47.5l0-.4c.36-9.54.41-17.48.15-25-1-30.25-7.78-54.5-20.12-72.07-15.68-22.46-39.22-36.12-66.28-38.46-31-2.69-92.83,4.13-158.58,80-3.12,3.6-6.27,7.39-9.37,11.25C548.41,323.29,530.7,337.78,516.92,339.34Z"/><path d="M515.84,1123.2c-3,0-5.88-.13-8.77-.37a96.47,96.47,0,0,1-16.15-2.75c-46.18-12-81.78-58.47-82.8-108.08-.36-17.76,3.39-35.92,7-53.47,3.52-17,6.85-33.12,6.73-48.87-.14-18.28-4.33-33-13.58-47.75a113.67,113.67,0,0,0-37.44-36.22c-14.54-8.81-31.23-14.4-47.37-19.81-10.78-3.62-21.93-7.36-32.08-12a138.12,138.12,0,0,1-23.62-13.71c-21.62-15.83-37.58-40.15-44.95-68.47-9.67-37.19-4.85-76.13,12.58-101.62,14.5-21.2,31-27.47,43.67-30.56,13.42-3.27,28.23-3.33,43.91-3.4,4.1,0,8.34,0,12.65-.12,16.66-.28,33-1,49.25-7.27,13.12-5,24.95-14.68,35.17-28.72,16.92-23.26,26-57.3,33.11-87.37,1-4.21,2-8.45,3-12.67,7.22-30.8,14-59.89,25.88-74.73l.55.44-.55-.44c12.86-16.13,20.33-20.28,29.79-25.53,2.11-1.17,4.29-2.38,6.67-3.8,13.08-7.78,31.2-25.16,47.27-45.34,2.86-3.6,5.78-7.12,8.67-10.45,20.31-23.42,43.76-42.3,67.81-54.59,27.44-14,54.75-19.28,81.15-15.6,26,3.63,48,17.72,63.53,40.75,11.65,17.18,18.84,40.71,21.36,69.93.65,7.38,1,15.11,1.24,24.32.28,14.1.61,30.08,2.6,46.29,3.3,26.21,12.56,63,37.9,89.45a102.37,102.37,0,0,0,24.27,18.72c19.4,10.76,42.51,15.07,66.86,12.47,32.73-3.5,64.38-19,85.34-30.34,5.41-2.92,10.91-6,16.23-8.92l7.74-4.29C1089.21,447,1130.81,426,1176,425.11c46.75-.94,93.15,28.35,105.68,66.68a70,70,0,0,1,3.26,27.63c-1.68,20.62-11.93,40.22-29.64,56.66-15.55,14.46-36.46,26-58.86,32.58-14.62,4.28-30,7.16-44.84,9.94-24,4.49-48.73,9.12-70.73,19.76-35,17-61,52.32-66.31,90.06-3,21.26,1,40.73,11.14,54.82,10.35,14.32,25.76,24,40.65,33.41,10.66,6.72,21.69,13.66,30.54,22.17,9.95,9.57,16.11,20.2,18.83,32.5,3.64,16.46-.69,35.83-12.21,54.55a125.16,125.16,0,0,1-47.93,44.51c-36.93,19.36-84.61,23.7-121.47,11.07-28.87-9.92-50.56-30.66-66.32-63.41-2.66-5.5-5.13-11.23-7.52-16.78-6.27-14.55-12.75-29.59-23.33-41.91A66.58,66.58,0,0,0,805.68,839a69.28,69.28,0,0,0-37.24-.68c-23.27,5.75-44.75,22.75-63.85,50.55a248.14,248.14,0,0,0-30.08,60.9c-3.44,10.52-6.43,21.08-9.32,31.29-1.4,5-2.85,10.08-4.3,15-8.51,28.94-18.51,53-39.61,76.28a164,164,0,0,1-51.7,38.19C551.72,1118.89,533.32,1123.2,515.84,1123.2Zm191.1-912.95c-21,0-42.46,5.55-64,16.58-23.89,12.21-47.19,31-67.38,54.26-2.88,3.32-5.78,6.81-8.63,10.4-16.18,20.31-34.44,37.81-47.65,45.68-2.41,1.43-4.6,2.65-6.72,3.82-9.32,5.18-16.68,9.26-29.37,25.17-11.63,14.59-18.42,43.53-25.6,74.17-1,4.22-2,8.46-3,12.67-7.18,30.21-16.27,64.4-33.34,87.88-10.38,14.27-22.43,24.1-35.82,29.22-16.5,6.3-32.94,7.08-49.74,7.36-4.32.08-8.56.1-12.66.12-15.6.07-30.33.13-43.58,3.35-12.47,3-28.6,9.19-42.83,30-17.2,25.16-22,63.66-12.37,100.46,7.28,28,23.05,52,44.4,67.68A137,137,0,0,0,292,792.61c10.07,4.58,21.19,8.31,31.93,11.91,16.22,5.43,33,11.05,47.66,20a115,115,0,0,1,37.91,36.68c9.4,15,13.66,29.93,13.8,48.5.12,15.9-3.22,32.06-6.76,49.17-3.61,17.48-7.35,35.55-7,53.15,1,49,36.15,94.88,81.73,106.73a95.64,95.64,0,0,0,15.91,2.7c19.78,1.69,41.14-2.51,61.78-12.12a162.88,162.88,0,0,0,51.26-37.85c20.91-23.1,30.83-47,39.29-75.72,1.45-4.93,2.89-10.05,4.3-15,2.89-10.22,5.88-20.79,9.33-31.35a249.65,249.65,0,0,1,30.26-61.26c19.3-28.1,41.07-45.3,64.68-51.12a70.69,70.69,0,0,1,38,.69A68.09,68.09,0,0,1,838,858.42c10.72,12.48,17.24,27.63,23.55,42.28,2.39,5.53,4.85,11.24,7.5,16.72,15.58,32.39,37,52.89,65.49,62.68,36.51,12.51,83.75,8.2,120.34-11a123.75,123.75,0,0,0,47.39-44c11.31-18.4,15.59-37.4,12-53.49-5.93-26.8-26.73-39.9-48.74-53.77-15-9.46-30.53-19.24-41-33.78s-14.45-34.23-11.39-55.86c5.37-38.19,31.71-74,67.09-91.14,22.18-10.73,47-15.38,71.09-19.88,14.83-2.78,30.15-5.65,44.71-9.91,22.19-6.5,42.89-17.95,58.29-32.25,17.44-16.2,27.53-35.47,29.19-55.74a68.66,68.66,0,0,0-3.2-27.06c-12.35-37.77-58.18-66.6-104.29-65.7-44.86.92-86.28,21.78-124.86,43.06l-7.74,4.28c-5.32,2.95-10.82,6-16.24,8.93-44,23.81-70.07,28.81-85.87,30.5-24.64,2.63-48.05-1.74-67.7-12.64a103.63,103.63,0,0,1-24.61-19c-25.61-26.73-35-63.84-38.29-90.27-2-16.27-2.32-32.29-2.61-46.43-.19-9.18-.59-16.88-1.23-24.23-2.5-29-9.61-52.27-21.13-69.25-15.3-22.68-36.93-36.56-62.54-40.13A117.77,117.77,0,0,0,706.94,210.25Z"/><path d="M514.26,1109.4a106.29,106.29,0,0,1-12.38-.72,98.51,98.51,0,0,1-16-3.22C440,1092.12,405.6,1045,406,995.85c.11-15.35,3.34-31,6.47-46.09,3.57-17.26,7.26-35.11,6-52-1.28-17.37-7-31.92-17.9-45.8-10-12.67-23.25-23.7-39.43-32.81-12.86-7.28-27.16-12.74-41-18-11.66-4.44-23.72-9-34.59-14.65a138,138,0,0,1-22.14-14.21c-20.23-16.17-34.47-40.33-40.09-68-7.4-36.47.15-74,19.72-97.87,13.16-16.09,28-24.47,48.15-27.18,12.55-1.69,25.56-.8,39.33.15,6,.42,12.28.85,18.63,1.07,15.31.51,31.72.08,48-6.57,12.33-5,23.58-14.91,33.43-29.34C446,522,455.18,490.21,462.81,459.22c1.51-6.07,3-12.23,4.39-18.19,6.53-27.48,12.7-53.43,22-68.08,12.17-19.17,19.22-26.95,31.35-39,11.73-11.66,27.08-29.2,41.07-46.92,2.59-3.29,5.26-6.51,7.92-9.58,18.44-21.25,40.25-38.16,63.1-48.91,25.34-11.93,51.29-15.72,75-11,24.17,4.84,44.82,19.51,59.72,42.43,11,16.85,18.32,38.77,22.36,67,1,7.14,1.89,14.85,2.62,23.56,1.27,15.2,2.62,30.07,5.18,44.83,6.53,37,19.59,65.7,38.8,85.3a99.62,99.62,0,0,0,23.47,17.75c18.77,10.2,40.38,14.1,64.23,11.59,24.4-2.58,50.51-11.59,82.2-28.36,6.2-3.27,12.5-6.72,18.59-10.05l4.51-2.46c18.34-10,37.94-20.46,58.23-28.42,22.29-8.75,42.57-13.32,62-14,21.11-.71,43.16,5.17,62.12,16.54,19.61,11.76,33.7,28.27,39.67,46.49a65.48,65.48,0,0,1,3,26.5c-1.8,19.73-12,38.28-29.51,53.65-15.21,13.36-35.61,24-57.43,29.89-13.69,3.72-28,6.24-41.87,8.68-24.78,4.37-50.4,8.88-72.89,20.35-34.92,17.83-59.22,55.18-61.92,95.14-1.55,22.73,4.3,43.57,16.47,58.69,12.48,15.41,30.27,26,47.48,36.18,25.58,15.18,49.74,29.52,58.36,58.49,10.56,35.46-14.06,81.89-54.87,103.48-36.71,19.43-85,21.43-123.1,5.11-30.56-13.12-54.45-37.54-73-74.66-3.22-6.42-6.24-13.1-9.17-19.56-7.45-16.46-15.15-33.47-26.84-47.7a82.34,82.34,0,0,0-33.89-24.74,70.25,70.25,0,0,0-38.87-3.51c-30.28,5.75-51.5,30-64,49.23a217.06,217.06,0,0,0-27.31,63c-2.81,11.09-5.14,22.36-7.38,33.26-1.1,5.35-2.24,10.87-3.41,16.23-6.89,32-15.6,58.27-35.67,82.41C589.86,1090.82,551.2,1109.39,514.26,1109.4ZM306.81,579.72a115.52,115.52,0,0,0-15.43.93c-13.3,1.8-30.68,6.45-47.24,26.68C224.85,630.9,217.41,668,224.73,704c5.55,27.37,19.6,51.23,39.57,67.19a137,137,0,0,0,21.91,14.06c10.8,5.57,22.82,10.16,34.44,14.59,13.88,5.29,28.23,10.77,41.18,18.11,16.35,9.19,29.76,20.35,39.86,33.17,11.12,14.11,16.9,28.91,18.19,46.57,1.25,17-2.46,35-6.05,52.35-3.12,15.05-6.33,30.6-6.44,45.81-.36,48.54,33.55,95.06,78.86,108.22a96.56,96.56,0,0,0,15.8,3.18c40,4.68,84.12-14.25,112.42-48.23,19.89-23.91,28.52-50,35.37-81.79,1.17-5.35,2.31-10.88,3.41-16.22,2.25-10.92,4.57-22.2,7.39-33.32a218.58,218.58,0,0,1,27.5-63.46c12.61-19.51,34.11-44,64.89-49.86A71.73,71.73,0,0,1,792.68,818a83.8,83.8,0,0,1,34.49,25.16c11.81,14.38,19.55,31.48,27,48,2.91,6.44,5.93,13.11,9.14,19.51,18.43,36.81,42.09,61,72.33,74,37.69,16.15,85.52,14.17,121.86-5.06,40.24-21.3,64.54-67,54.17-101.81-8.46-28.44-32.39-42.64-57.72-57.67-17.32-10.27-35.22-20.9-47.87-36.52-12.39-15.4-18.35-36.59-16.78-59.67,2.74-40.46,27.34-78.27,62.7-96.33,22.68-11.56,48.41-16.09,73.29-20.48,13.82-2.43,28.12-5,41.74-8.65,21.62-5.86,41.82-16.37,56.87-29.58,17.23-15.13,27.26-33.35,29-52.71a63.86,63.86,0,0,0-2.94-25.92c-5.87-17.9-19.73-34.13-39-45.71-18.73-11.24-40.5-17-61.34-16.34-23.75.81-50.76,4.64-119.59,42.22l-4.52,2.47c-6.09,3.33-12.39,6.78-18.6,10.06-31.85,16.86-58.14,25.92-82.72,28.51-24.14,2.55-46-1.41-65.07-11.76a100.65,100.65,0,0,1-23.8-18c-19.42-19.8-32.61-48.76-39.19-86.05-2.57-14.82-3.93-29.72-5.19-45-.73-8.68-1.59-16.36-2.61-23.48-4-28-11.26-49.75-22.15-66.42-14.68-22.59-35-37.05-58.8-41.81-23.45-4.69-49.1-.94-74.16,10.86-22.67,10.67-44.32,27.46-62.63,48.55-2.65,3.06-5.3,6.26-7.88,9.54-14,17.76-29.42,35.35-41.19,47-12,12-19,19.7-31.14,38.75l-.6-.38.6.38c-9.17,14.44-15.31,40.29-21.81,67.65-1.42,6-2.88,12.12-4.39,18.2-7.66,31.12-16.89,63.05-32.43,85.79-10,14.66-21.47,24.71-34.07,29.85-16.54,6.76-33.13,7.2-48.6,6.67-6.37-.21-12.63-.64-18.68-1.06C322.3,580.26,314.45,579.72,306.81,579.72Z"/><path d="M512.56,1095.7a107.83,107.83,0,0,1-15.87-1.16,100.11,100.11,0,0,1-15.9-3.71c-45.68-14.68-78.79-62.46-77-111.13.48-13.22,3.32-26.62,6.06-39.58,3.8-17.92,7.72-36.46,5.2-54.16-2.41-16.85-9.46-30.78-22.21-43.86-10.28-10.54-24.22-20.43-41.43-29.38-10.29-5.38-21.36-10.11-32.06-14.68-13.42-5.73-27.31-11.66-39.65-18.89A137.57,137.57,0,0,1,259,764.43c-18.84-16.5-31.35-40.5-35.22-67.58-5.12-35.67,5.17-71.73,26.84-94.11,15.12-15.61,31.35-23,52.63-23.81,12.24-.48,24.37,1.29,37.22,3.16,7.22,1,14.69,2.14,22.16,2.79,13.75,1.19,30.06,1.43,46.76-5.86,11.58-5.06,22.24-15.14,31.7-29.95,14.78-23.15,24.13-55.1,31.32-83.29,2.17-8.5,4.22-17,6.2-25.26,5.66-23.6,11-45.89,17.69-59.87C505.13,362.29,512.16,348,522.6,332c9.72-14.94,22.09-32.16,34.84-48.49,2.34-3,4.76-5.94,7.18-8.73,27.26-31.39,77-63.2,127.34-49.56,22.66,6.13,41.47,21,55.9,44.1,10.26,16.39,17.89,37.35,23.36,64.07,1.43,7,2.74,14.45,4,22.81,2.1,14,4.43,28.83,7.76,43.37,8.39,36.39,21.38,62.94,39.7,81.15a96.17,96.17,0,0,0,22.66,16.77c17.86,9.51,38.6,13.11,61.62,10.72,23.56-2.45,49.42-11.08,79.06-26.38,7.09-3.66,14.3-7.54,21.26-11.3l1-.52c17-9.16,36.17-19.53,55.71-27.41,21.37-8.63,40.74-13.25,59.23-14.15,20.18-1,41.39,4.43,59.72,15.21,18.91,11.12,32.47,26.81,38.17,44.17a61,61,0,0,1,2.77,25.37c-4.33,42.85-48.71,68.71-85.39,77.84-12.76,3.18-26.07,5.36-39,7.48-25.58,4.21-52,8.55-75,20.87-34.83,18.71-57.41,58.06-57.53,100.25-.07,24.25,7.67,46.46,21.81,62.54,14.61,16.58,34.84,28,54.4,39.08,28.83,16.3,56.06,31.7,67.27,62.19,6.67,18.38,5,39.89-4.83,60.57a106,106,0,0,1-44.78,47.32c-36.4,19.45-85.35,19.12-124.71-.85-31.87-16.17-58.71-45.08-79.77-85.92-3.81-7.37-7.41-15-10.89-22.44-8.61-18.32-17.51-37.27-30.29-53.38-10.24-12.89-22.87-23-36.52-29.17-13.34-6.08-27-8.21-40.49-6.35-31.41,4.29-52.19,28.43-64.08,47.92C662.68,859.76,654,882.9,649.54,906.3c-2.19,11.66-3.86,23.67-5.47,35.28-.8,5.72-1.62,11.63-2.49,17.4-4.23,28.26-10.52,60.74-31.73,88.53C586.94,1077.49,549.34,1095.7,512.56,1095.7ZM307.48,580.28c-1.38,0-2.76,0-4.14.08-20.88.84-36.81,8-51.65,23.37-21.37,22.08-31.51,57.68-26.46,92.92,3.83,26.74,16.17,50.43,34.75,66.7a135.85,135.85,0,0,0,20.44,14.56c12.27,7.19,26.11,13.1,39.49,18.82,10.73,4.58,21.82,9.32,32.16,14.72,17.34,9,31.41,19,41.79,29.65,13,13.31,20.15,27.5,22.6,44.65,2.56,18-1.39,36.62-5.21,54.67-2.73,12.9-5.55,26.24-6,39.33-1.76,48.06,30.91,95.22,76,109.72a98.41,98.41,0,0,0,15.68,3.65c41,6.11,85.9-12.56,111.81-46.48,21-27.51,27.25-59.79,31.46-87.88.87-5.75,1.69-11.66,2.48-17.37,1.62-11.63,3.29-23.66,5.49-35.35,4.45-23.57,13.23-46.88,24.73-65.65,12-19.76,33.14-44.23,65.11-48.59,13.79-1.91,27.68.27,41.27,6.46,13.85,6.28,26.66,16.51,37,29.59,12.89,16.23,21.82,35.26,30.47,53.66,3.47,7.39,7.06,15,10.86,22.39,20.92,40.57,47.55,69.27,79.15,85.3,39,19.76,87.39,20.1,123.39.86a104.56,104.56,0,0,0,44.15-46.67c9.63-20.33,11.33-41.45,4.78-59.47-11-30-38-45.26-66.62-61.43-19.67-11.12-40-22.62-54.77-39.39-14.37-16.34-22.24-38.89-22.17-63.48.12-42.71,23-82.56,58.29-101.51,23.16-12.43,49.74-16.8,75.44-21,12.85-2.11,26.13-4.29,38.84-7.46,36.23-9,80.05-34.48,84.3-76.59a59.52,59.52,0,0,0-2.69-24.78c-5.6-17-18.93-32.44-37.55-43.39-17.83-10.48-39.3-15.94-58.92-15-41.38,2-78.46,22-114.33,41.39l-1,.52c-7,3.76-14.18,7.65-21.29,11.31-29.8,15.38-55.82,24.06-79.56,26.53-23.31,2.43-44.32-1.23-62.45-10.88a98.19,98.19,0,0,1-23-17c-18.52-18.41-31.63-45.19-40.08-81.85-3.34-14.59-5.68-29.48-7.79-43.48-1.25-8.33-2.56-15.77-4-22.73-5.42-26.55-13-47.36-23.16-63.6-14.24-22.81-32.76-37.44-55.06-43.48-40.93-11.09-90.34,8.2-125.89,49.11-2.41,2.78-4.81,5.69-7.14,8.68-12.72,16.29-25.07,33.48-34.76,48.39-10.4,16-17.4,30.19-26.17,48.51L497,381l.64.31C491,395.11,485.68,417.33,480,440.86c-2,8.24-4,16.76-6.21,25.27-7.22,28.3-16.6,60.38-31.5,83.71-9.61,15.06-20.48,25.31-32.33,30.49-17,7.42-33.52,7.18-47.46,6-7.51-.65-15-1.74-22.23-2.8C329,581.85,318.21,580.28,307.48,580.28Z"/><path d="M510.94,1082.12a105.75,105.75,0,0,1-35.22-5.91c-45.51-16.07-77.36-64.5-74.1-112.66.77-11.35,3.31-22.8,5.76-33.88,4.05-18.29,8.23-37.21,4.26-55.56-8.62-39.86-46.3-57.13-86.19-75.42-25.39-11.64-51.65-23.68-70.78-42.15C234.44,737,223.24,708,224,677.05s13.23-59.4,34.34-78c32-28.19,63.39-21.22,93.73-14.48,24,5.33,46.58,10.36,69.68-.44,38.35-17.92,56.62-94.57,70-150.54,4.3-18,8-33.6,11.83-45.24,12.79-38.92,27.28-83,56.21-116.3a133.73,133.73,0,0,1,53.52-37.38c21.88-8.07,43.67-8.71,63-1.86,51.14,18.13,70.59,78.44,81.81,129,10.27,46.23,24.34,109.54,72.8,134.71,34.54,18,79.93,13.05,134.92-14.55,8.36-4.19,16.83-8.72,25-13.09,33.44-17.86,68-36.32,106-38.75,28.33-1.81,59,10,78.21,30.11,14,14.66,20.31,31.9,18.29,49.86s-12.12,34.4-29.24,47.59c-14.48,11.15-33.87,19.87-54.59,24.54-11.82,2.67-24.12,4.53-36,6.33-26.41,4-53.72,8.14-77.12,21.34-27.26,15.38-46.67,45.28-51.92,80s4.44,69,25.93,91.77c16.74,17.73,39.42,30,61.36,41.94,32.12,17.42,62.45,33.87,76.12,65.92,16.6,39-3.7,90.38-44.33,112.3-18.47,10-40.41,14.37-63.45,12.72A147.16,147.16,0,0,1,937.15,995c-33.66-19.5-62.76-52.19-86.51-97.19-4.41-8.35-8.6-17-12.65-25.4-9.75-20.17-19.84-41-33.68-59-22.55-29.24-52.94-45.24-81.27-42.8-49.89,4.3-79.14,60.31-86,113.92-1.53,12-2.53,24.52-3.5,36.61-3.2,39.92-6.5,81.2-29.42,113.91C583.33,1064.75,547,1082.12,510.94,1082.12ZM311.21,580c-17.12,0-34.47,4.71-52,20.12-20.81,18.32-33.15,46.37-33.85,76.94s10.34,59.17,30.28,78.43c19,18.3,45.1,30.29,70.39,41.88,40.22,18.44,78.22,35.86,87,76.41,4,18.67-.19,37.74-4.27,56.18-2.43,11-5,22.42-5.72,33.67-3.23,47.54,28.22,95.35,73.15,111.21s99.42-1.59,126.76-40.61c22.69-32.39,26-73.48,29.16-113.21,1-12.11,2-24.62,3.52-36.67,6.92-54.18,36.59-110.8,87.27-115.16,28.83-2.5,59.68,13.72,82.53,43.35,13.94,18.07,24,39,33.83,59.22,4.05,8.37,8.24,17,12.63,25.36,23.62,44.75,52.55,77.25,86,96.61a145.68,145.68,0,0,0,62.26,19.34c22.77,1.62,44.44-2.72,62.67-12.55,40-21.59,60-72.19,43.69-110.49-13.47-31.59-43.59-47.93-75.48-65.23-22-12-44.82-24.31-61.72-42.21-21.79-23.07-31.62-57.83-26.3-93s25-65.43,52.63-81c23.62-13.33,51.07-17.48,77.6-21.5,11.87-1.8,24.14-3.66,35.92-6.31,35.39-8,78.28-31.34,82.72-70.9,2-17.52-4.22-34.37-17.9-48.71-18.9-19.82-49.16-31.48-77.09-29.68-37.66,2.42-72.09,20.81-105.4,38.59-8.2,4.38-16.68,8.91-25.06,13.11C911,511,865.16,515.93,830.19,497.76c-49.05-25.48-63.2-89.17-73.53-135.67-11.15-50.16-30.42-110-80.89-127.92-19-6.74-40.48-6.1-62,1.85-19.73,7.27-38.53,20.41-52.94,37-28.74,33-43.19,77-55.93,115.81l-.68-.22.68.22c-3.8,11.57-7.51,27.12-11.8,45.12-13.41,56.25-31.78,133.29-70.75,151.51-23.54,11-47.47,5.68-70.6.54C338.39,583,324.87,580,311.21,580Z"/></svg>